<svg width="396" height="184" viewBox="0 0 396 184" fill="none" xmlns="http://www.w3.org/2000/svg">
<path d="M211.863 0C233.039 0 252.565 7.04643 268.21 18.9159H36.6482C38.2249 17.7197 39.8409 16.5726 41.4942 15.4766H100.857C105.947 12.1026 111.388 9.21444 117.115 6.8785H176.62C187.491 2.44425 199.391 0 211.863 0Z" fill="url(#paint0_radial_55_13)"/>
<path d="M288.134 39.5514C283.133 32.4521 277.16 26.0828 270.408 20.6355H153.318C150.649 22.7883 148.103 25.0851 145.69 27.514H86.1854C83.4958 30.2214 80.9721 33.0929 78.6308 36.1121H19.2679C18.3947 37.2383 17.5468 38.385 16.7252 39.5514H288.134Z" fill="url(#paint1_radial_55_13)"/>
<path d="M289.316 41.271C293.255 47.1382 296.542 53.478 299.071 60.1869H5.78733C6.22383 59.0293 6.68284 57.8827 7.16385 56.7477H66.5268C67.7755 53.8009 69.1725 50.9317 70.7083 48.1495H130.213C131.514 45.7924 132.915 43.4977 134.41 41.271H289.316Z" fill="url(#paint2_radial_55_13)"/>
<path d="M304.225 80.8224C303.375 74.279 301.842 67.9493 299.7 61.9065H124.026C123.226 64.1607 122.512 66.4548 121.886 68.785H62.3822C61.6263 71.6006 60.9998 74.4689 60.5094 77.3832H1.14645C0.954729 78.5227 0.783795 79.6692 0.634074 80.8224H304.225Z" fill="url(#paint3_radial_55_13)"/>
<path d="M304.432 82.5421C304.807 85.9297 305 89.3723 305 92.8598C305 95.7588 304.867 98.6268 304.606 101.458H0.25265C0.147616 100.317 0.0632942 99.1708 0 98.0187H59.3629C59.2691 96.3109 59.2216 94.5909 59.2216 92.8598C59.2216 91.7084 59.2427 90.5618 59.2843 89.4206H118.789C118.873 87.1051 119.043 84.8112 119.294 82.5421H304.432Z" fill="url(#paint4_radial_55_13)"/>
<path d="M300.291 122.093C302.303 116.04 303.707 109.711 304.432 103.178H119.294C119.551 105.497 119.894 107.791 120.32 110.056H60.8155C61.3632 112.972 62.0476 115.841 62.8619 118.654H3.499C3.83352 119.81 4.18997 120.957 4.56784 122.093H300.291Z" fill="url(#paint5_radial_55_13)"/>
<path d="M299.7 123.813C297.329 130.504 294.21 136.842 290.443 142.729H14.4153C13.6924 141.599 12.9933 140.452 12.3188 139.29H71.6817C70.0698 136.511 68.5981 133.642 67.2762 130.692H126.78C125.774 128.445 124.854 126.15 124.026 123.813H299.7Z" fill="url(#paint6_radial_55_13)"/>
<path d="M272.478 163.364C278.913 157.86 284.585 151.495 289.316 144.449H134.41C136.002 146.821 137.702 149.116 139.501 151.327H79.997C82.4627 154.357 85.116 157.229 87.9392 159.925H28.5763C29.8124 161.106 31.081 162.253 32.3807 163.364H272.478Z" fill="url(#paint7_radial_55_13)"/>
<path d="M270.408 165.084C258.836 174.42 244.975 181.048 229.795 184H75.0634C70.6944 183.15 66.4346 181.996 62.3072 180.561H121.67C115.285 178.34 109.216 175.445 103.55 171.963H163.054C159.658 169.875 156.406 167.576 153.318 165.084H270.408Z" fill="url(#paint8_radial_55_13)"/>
<path d="M255.52 150.04L265.84 109C266.267 107.24 266.427 105.96 266.32 105.16C266.213 104.36 265.653 103.8 264.64 103.48C263.627 103.107 261.867 102.92 259.36 102.92V101H268.72H270.4H276.8V102.92C275.093 102.92 273.787 103.08 272.88 103.4C271.973 103.72 271.227 104.307 270.64 105.16C270.053 106.013 269.547 107.293 269.12 109L254.24 166.84H250.24L234.8 109C234.32 107.293 233.787 106.013 233.2 105.16C232.613 104.307 231.84 103.72 230.88 103.4C229.973 103.08 228.667 102.92 226.96 102.92V101H233.44H241.68H251.04V102.92C248.533 102.92 246.773 103.107 245.76 103.48C244.747 103.8 244.187 104.36 244.08 105.16C244.027 105.96 244.213 107.24 244.64 109L255.28 150.04H255.52ZM228 151.4L238.24 118.36L240.8 120.52L226.16 166.84H222.32L206.64 108.92C206.16 107.213 205.627 105.96 205.04 105.16C204.453 104.307 203.68 103.72 202.72 103.4C201.813 103.08 200.507 102.92 198.8 102.92V101H205.28H213.52H222.88V102.92C220.373 102.92 218.613 103.107 217.6 103.48C216.64 103.8 216.107 104.36 216 105.16C215.947 105.96 216.133 107.213 216.56 108.92L227.76 151.4H228ZM325.929 109.24C325.929 107.48 325.716 106.173 325.289 105.32C324.916 104.467 324.143 103.853 322.969 103.48C321.796 103.107 319.956 102.92 317.449 102.92V101H326.729H328.489H337.769V102.92C335.263 102.92 333.423 103.107 332.249 103.48C331.076 103.853 330.276 104.467 329.849 105.32C329.476 106.173 329.289 107.48 329.289 109.24V166.84H325.289L289.209 108.04C287.876 105.907 286.516 104.52 285.129 103.88C283.743 103.24 281.769 102.92 279.209 102.92V101H285.689H295.929L325.689 149.48H325.929V109.24ZM291.049 105.08V156.76C291.049 158.52 291.236 159.827 291.609 160.68C292.036 161.533 292.836 162.147 294.009 162.52C295.183 162.893 297.049 163.08 299.609 163.08V165H290.249H288.569H279.209V163.08C281.716 163.08 283.556 162.893 284.729 162.52C285.903 162.147 286.703 161.533 287.129 160.68C287.556 159.827 287.769 158.52 287.769 156.76V105.08H291.049ZM372.846 156.76C372.846 158.52 373.033 159.827 373.406 160.68C373.833 161.533 374.633 162.147 375.806 162.52C376.98 162.893 378.82 163.08 381.326 163.08V165H372.046H364.606H355.246V163.08C357.806 163.08 359.673 162.893 360.846 162.52C362.02 162.147 362.793 161.533 363.166 160.68C363.593 159.827 363.806 158.52 363.806 156.76V136.84L349.566 108.36C348.446 106.12 347.22 104.653 345.886 103.96C344.606 103.267 342.713 102.92 340.206 102.92V101H346.686H355.726H365.086V102.92C362.686 102.92 361.033 103.053 360.126 103.32C359.22 103.587 358.793 104.04 358.846 104.68C358.9 105.32 359.273 106.387 359.966 107.88L360.206 108.44L371.566 131.24H371.806L382.046 108.52C382.1 108.413 382.126 108.333 382.126 108.28C382.18 108.173 382.233 108.093 382.286 108.04C382.926 106.493 383.246 105.4 383.246 104.76C383.3 104.067 382.873 103.587 381.966 103.32C381.06 103.053 379.406 102.92 377.006 102.92V101H386.366H388.366H394.846V102.92C393.14 102.92 391.753 103.08 390.686 103.4C389.673 103.667 388.766 104.2 387.966 105C387.22 105.8 386.473 106.973 385.726 108.52L372.846 136.84V156.76Z" fill="white"/>
<path d="M250.48 76.28C251.92 78.2533 253.333 79.56 254.72 80.2C256.16 80.7867 258.213 81.08 260.88 81.08V83H254.4H245.28H236.8V81.08C238.773 81.08 240.107 81 240.8 80.84C241.493 80.68 241.787 80.3867 241.68 79.96C241.573 79.48 241.12 78.6533 240.32 77.48L239.44 76.28L219.36 49.48L240.08 25.24C240.187 25.08 240.293 24.9467 240.4 24.84C240.56 24.68 240.693 24.52 240.8 24.36C241.813 23.1867 242.4 22.3867 242.56 21.96C242.773 21.5333 242.533 21.2667 241.84 21.16C241.2 21 239.787 20.92 237.6 20.92V19H246.56H248.88H255.28V20.92C252.613 20.92 250.507 21.1867 248.96 21.72C247.413 22.2533 245.867 23.4267 244.32 25.24L227.92 44.92L250.48 76.28ZM207.84 27.24C207.84 25.48 207.627 24.1733 207.2 23.32C206.827 22.4667 206.053 21.8533 204.88 21.48C203.707 21.1067 201.84 20.92 199.28 20.92V19H208.64H216.08H225.36V20.92C222.853 20.92 221.013 21.1067 219.84 21.48C218.667 21.8533 217.867 22.4667 217.44 23.32C217.067 24.1733 216.88 25.48 216.88 27.24V74.76C216.88 76.52 217.067 77.8267 217.44 78.68C217.867 79.5333 218.667 80.1467 219.84 80.52C221.013 80.8933 222.853 81.08 225.36 81.08V83H216.08H208.64H199.28V81.08C201.84 81.08 203.707 80.8933 204.88 80.52C206.053 80.1467 206.827 79.5333 207.2 78.68C207.627 77.8267 207.84 76.52 207.84 74.76V27.24ZM257.208 51C257.208 44.5467 258.301 38.7867 260.488 33.72C262.728 28.6 265.875 24.6 269.928 21.72C273.981 18.84 278.648 17.4 283.928 17.4C286.488 17.4 288.648 17.72 290.408 18.36C292.221 18.9467 294.115 19.7467 296.088 20.76C296.621 21.08 297.128 21.3467 297.608 21.56C298.088 21.7733 298.461 21.88 298.728 21.88C299.261 21.88 299.635 21.6667 299.848 21.24C300.115 20.76 300.248 19.7467 300.248 18.2H302.088L303.288 40.2H301.448C300.168 27.1867 294.915 20.68 285.688 20.68C281.795 20.68 278.435 22.0133 275.608 24.68C272.835 27.2933 270.701 30.8933 269.208 35.48C267.768 40.0667 267.048 45.24 267.048 51C267.048 56.76 267.768 61.88 269.208 66.36C270.648 70.84 272.755 74.36 275.528 76.92C278.301 79.4267 281.608 80.68 285.448 80.68C290.461 80.68 294.648 78.6 298.008 74.44C301.368 70.28 303.528 64.52 304.488 57.16H306.408C305.288 65.5867 302.835 72.28 299.048 77.24C295.261 82.1467 290.088 84.6 283.528 84.6C278.248 84.6 273.608 83.16 269.608 80.28C265.661 77.4 262.595 73.4267 260.408 68.36C258.275 63.24 257.208 57.4533 257.208 51ZM310.4 78.28C310.4 77.32 310.747 76.5733 311.44 76.04C312.187 75.4533 313.147 75.16 314.32 75.16C315.493 75.16 316.4 75.4267 317.04 75.96C317.733 76.44 318.427 77.16 319.12 78.12L319.28 78.28C320.027 79.2933 320.853 80.0667 321.76 80.6C322.667 81.08 323.893 81.32 325.44 81.32C327.253 81.32 328.96 80.7867 330.56 79.72C332.16 78.6 333.44 76.9467 334.4 74.76C335.413 72.5733 335.92 69.96 335.92 66.92C335.92 61.2667 334.56 57.1333 331.84 54.52C329.12 51.9067 325.387 50.3867 320.64 49.96V48.04C324.373 46.7067 327.227 44.8133 329.2 42.36C331.227 39.8533 332.24 36.7333 332.24 33C332.24 30.1733 331.493 27.8533 330 26.04C328.507 24.2267 326.373 23.32 323.6 23.32C320.667 23.32 318.32 24.1467 316.56 25.8C314.853 27.4 313.653 29.64 312.96 32.52H311.04C311.733 27.7733 313.467 24.0667 316.24 21.4C319.067 18.7333 322.667 17.4 327.04 17.4C329.653 17.4 332 17.9867 334.08 19.16C336.16 20.28 337.787 21.9333 338.96 24.12C340.187 26.2533 340.8 28.7867 340.8 31.72C340.8 35.24 339.813 38.28 337.84 40.84C335.867 43.4 333.013 45.5067 329.28 47.16V47.4C333.867 47.9867 337.547 49.8 340.32 52.84C343.147 55.8267 344.56 59.8533 344.56 64.92C344.56 68.8667 343.6 72.3333 341.68 75.32C339.813 78.3067 337.307 80.6 334.16 82.2C331.067 83.8 327.68 84.6 324 84.6C320.48 84.6 317.333 84.04 314.56 82.92C311.787 81.8 310.4 80.2533 310.4 78.28Z" fill="white"/>
<defs>
<radialGradient id="paint0_radial_55_13" cx="0" cy="0" r="1" gradientUnits="userSpaceOnUse" gradientTransform="translate(265.5 61.5) rotate(143.86) scale(149.212 120.913)">
<stop stop-color="#1C54E2"/>
<stop offset="1" stop-color="#0A1E53"/>
</radialGradient>
<radialGradient id="paint1_radial_55_13" cx="0" cy="0" r="1" gradientUnits="userSpaceOnUse" gradientTransform="translate(265.5 61.5) rotate(143.86) scale(149.212 120.913)">
<stop stop-color="#1C54E2"/>
<stop offset="1" stop-color="#0A1E53"/>
</radialGradient>
<radialGradient id="paint2_radial_55_13" cx="0" cy="0" r="1" gradientUnits="userSpaceOnUse" gradientTransform="translate(265.5 61.5) rotate(143.86) scale(149.212 120.913)">
<stop stop-color="#1C54E2"/>
<stop offset="1" stop-color="#0A1E53"/>
</radialGradient>
<radialGradient id="paint3_radial_55_13" cx="0" cy="0" r="1" gradientUnits="userSpaceOnUse" gradientTransform="translate(265.5 61.5) rotate(143.86) scale(149.212 120.913)">
<stop stop-color="#1C54E2"/>
<stop offset="1" stop-color="#0A1E53"/>
</radialGradient>
<radialGradient id="paint4_radial_55_13" cx="0" cy="0" r="1" gradientUnits="userSpaceOnUse" gradientTransform="translate(265.5 61.5) rotate(143.86) scale(149.212 120.913)">
<stop stop-color="#1C54E2"/>
<stop offset="1" stop-color="#0A1E53"/>
</radialGradient>
<radialGradient id="paint5_radial_55_13" cx="0" cy="0" r="1" gradientUnits="userSpaceOnUse" gradientTransform="translate(265.5 61.5) rotate(143.86) scale(149.212 120.913)">
<stop stop-color="#1C54E2"/>
<stop offset="1" stop-color="#0A1E53"/>
</radialGradient>
<radialGradient id="paint6_radial_55_13" cx="0" cy="0" r="1" gradientUnits="userSpaceOnUse" gradientTransform="translate(265.5 61.5) rotate(143.86) scale(149.212 120.913)">
<stop stop-color="#1C54E2"/>
<stop offset="1" stop-color="#0A1E53"/>
</radialGradient>
<radialGradient id="paint7_radial_55_13" cx="0" cy="0" r="1" gradientUnits="userSpaceOnUse" gradientTransform="translate(265.5 61.5) rotate(143.86) scale(149.212 120.913)">
<stop stop-color="#1C54E2"/>
<stop offset="1" stop-color="#0A1E53"/>
</radialGradient>
<radialGradient id="paint8_radial_55_13" cx="0" cy="0" r="1" gradientUnits="userSpaceOnUse" gradientTransform="translate(265.5 61.5) rotate(143.86) scale(149.212 120.913)">
<stop stop-color="#1C54E2"/>
<stop offset="1" stop-color="#0A1E53"/>
</radialGradient>
</defs>
</svg>
