<svg width="348" height="276" viewBox="0 0 348 276" fill="none" xmlns="http://www.w3.org/2000/svg">
<path d="M233.863 0C255.039 0 274.565 7.04643 290.21 18.9159H58.6482C60.2249 17.7197 61.8409 16.5726 63.4942 15.4766H122.857C127.947 12.1026 133.388 9.21444 139.115 6.8785H198.62C209.491 2.44425 221.391 0 233.863 0Z" fill="url(#paint0_radial_55_14)"/>
<path d="M310.134 39.5514C305.133 32.4521 299.16 26.0828 292.408 20.6355H175.318C172.649 22.7883 170.103 25.0851 167.69 27.514H108.185C105.496 30.2214 102.972 33.0929 100.631 36.1121H41.2679C40.3947 37.2383 39.5468 38.385 38.7252 39.5514H310.134Z" fill="url(#paint1_radial_55_14)"/>
<path d="M311.316 41.271C315.255 47.1382 318.542 53.478 321.071 60.1869H27.7873C28.2238 59.0293 28.6828 57.8827 29.1639 56.7477H88.5268C89.7755 53.8009 91.1725 50.9317 92.7083 48.1495H152.213C153.514 45.7924 154.915 43.4977 156.41 41.271H311.316Z" fill="url(#paint2_radial_55_14)"/>
<path d="M326.225 80.8224C325.375 74.279 323.842 67.9493 321.7 61.9065H146.026C145.226 64.1607 144.512 66.4548 143.886 68.785H84.3822C83.6263 71.6006 82.9998 74.4689 82.5094 77.3832H23.1465C22.9547 78.5227 22.7838 79.6692 22.6341 80.8224H326.225Z" fill="url(#paint3_radial_55_14)"/>
<path d="M326.432 82.5421C326.807 85.9297 327 89.3723 327 92.8598C327 95.7588 326.867 98.6268 326.606 101.458H22.2527C22.1476 100.317 22.0633 99.1708 22 98.0187H81.3629C81.2691 96.3109 81.2216 94.5909 81.2216 92.8598C81.2216 91.7084 81.2427 90.5618 81.2843 89.4206H140.789C140.873 87.1051 141.043 84.8112 141.294 82.5421H326.432Z" fill="url(#paint4_radial_55_14)"/>
<path d="M322.291 122.093C324.303 116.04 325.707 109.711 326.432 103.178H141.294C141.551 105.497 141.894 107.791 142.32 110.056H82.8155C83.3632 112.972 84.0476 115.841 84.8619 118.654H25.499C25.8335 119.81 26.19 120.957 26.5678 122.093H322.291Z" fill="url(#paint5_radial_55_14)"/>
<path d="M321.7 123.813C319.329 130.504 316.21 136.842 312.443 142.729H36.4153C35.6924 141.599 34.9933 140.452 34.3188 139.29H93.6817C92.0698 136.511 90.5981 133.642 89.2762 130.692H148.78C147.774 128.445 146.854 126.15 146.026 123.813H321.7Z" fill="url(#paint6_radial_55_14)"/>
<path d="M294.478 163.364C300.913 157.86 306.585 151.495 311.316 144.449H156.41C158.002 146.821 159.702 149.116 161.501 151.327H101.997C104.463 154.357 107.116 157.229 109.939 159.925H50.5763C51.8124 161.106 53.081 162.253 54.3807 163.364H294.478Z" fill="url(#paint7_radial_55_14)"/>
<path d="M292.408 165.084C280.836 174.42 266.975 181.048 251.795 184H97.0634C92.6944 183.15 88.4346 181.996 84.3072 180.561H143.67C137.285 178.34 131.216 175.445 125.55 171.963H185.054C181.658 169.875 178.406 167.576 175.318 165.084H292.408Z" fill="url(#paint8_radial_55_14)"/>
<path d="M52.48 267.28C53.92 269.253 55.3333 270.56 56.72 271.2C58.16 271.787 60.2133 272.08 62.88 272.08V274H56.4H47.28H38.8V272.08C40.7733 272.08 42.1067 272 42.8 271.84C43.4933 271.68 43.7867 271.387 43.68 270.96C43.5733 270.48 43.12 269.653 42.32 268.48L41.44 267.28L21.36 240.48L42.08 216.24C42.1867 216.08 42.2933 215.947 42.4 215.84C42.56 215.68 42.6933 215.52 42.8 215.36C43.8133 214.187 44.4 213.387 44.56 212.96C44.7733 212.533 44.5333 212.267 43.84 212.16C43.2 212 41.7867 211.92 39.6 211.92V210H48.56H50.88H57.28V211.92C54.6133 211.92 52.5067 212.187 50.96 212.72C49.4133 213.253 47.8667 214.427 46.32 216.24L29.92 235.92L52.48 267.28ZM9.84 218.24C9.84 216.48 9.62667 215.173 9.2 214.32C8.82667 213.467 8.05333 212.853 6.88 212.48C5.70667 212.107 3.84 211.92 1.28 211.92V210H10.64H18.08H27.36V211.92C24.8533 211.92 23.0133 212.107 21.84 212.48C20.6667 212.853 19.8667 213.467 19.44 214.32C19.0667 215.173 18.88 216.48 18.88 218.24V265.76C18.88 267.52 19.0667 268.827 19.44 269.68C19.8667 270.533 20.6667 271.147 21.84 271.52C23.0133 271.893 24.8533 272.08 27.36 272.08V274H18.08H10.64H1.28V272.08C3.84 272.08 5.70667 271.893 6.88 271.52C8.05333 271.147 8.82667 270.533 9.2 269.68C9.62667 268.827 9.84 267.52 9.84 265.76V218.24ZM59.2081 242C59.2081 235.547 60.3015 229.787 62.4881 224.72C64.7281 219.6 67.8748 215.6 71.9281 212.72C75.9815 209.84 80.6481 208.4 85.9281 208.4C88.4881 208.4 90.6481 208.72 92.4081 209.36C94.2215 209.947 96.1148 210.747 98.0881 211.76C98.6215 212.08 99.1281 212.347 99.6081 212.56C100.088 212.773 100.461 212.88 100.728 212.88C101.261 212.88 101.635 212.667 101.848 212.24C102.115 211.76 102.248 210.747 102.248 209.2H104.088L105.288 231.2H103.448C102.168 218.187 96.9148 211.68 87.6881 211.68C83.7948 211.68 80.4348 213.013 77.6081 215.68C74.8348 218.293 72.7015 221.893 71.2081 226.48C69.7681 231.067 69.0481 236.24 69.0481 242C69.0481 247.76 69.7681 252.88 71.2081 257.36C72.6481 261.84 74.7548 265.36 77.5281 267.92C80.3015 270.427 83.6081 271.68 87.4481 271.68C92.4615 271.68 96.6481 269.6 100.008 265.44C103.368 261.28 105.528 255.52 106.488 248.16H108.408C107.288 256.587 104.835 263.28 101.048 268.24C97.2615 273.147 92.0881 275.6 85.5281 275.6C80.2481 275.6 75.6081 274.16 71.6081 271.28C67.6615 268.4 64.5948 264.427 62.4081 259.36C60.2748 254.24 59.2081 248.453 59.2081 242ZM112.4 269.28C112.4 268.32 112.747 267.573 113.44 267.04C114.187 266.453 115.147 266.16 116.32 266.16C117.493 266.16 118.4 266.427 119.04 266.96C119.733 267.44 120.427 268.16 121.12 269.12L121.28 269.28C122.027 270.293 122.853 271.067 123.76 271.6C124.667 272.08 125.893 272.32 127.44 272.32C129.253 272.32 130.96 271.787 132.56 270.72C134.16 269.6 135.44 267.947 136.4 265.76C137.413 263.573 137.92 260.96 137.92 257.92C137.92 252.267 136.56 248.133 133.84 245.52C131.12 242.907 127.387 241.387 122.64 240.96V239.04C126.373 237.707 129.227 235.813 131.2 233.36C133.227 230.853 134.24 227.733 134.24 224C134.24 221.173 133.493 218.853 132 217.04C130.507 215.227 128.373 214.32 125.6 214.32C122.667 214.32 120.32 215.147 118.56 216.8C116.853 218.4 115.653 220.64 114.96 223.52H113.04C113.733 218.773 115.467 215.067 118.24 212.4C121.067 209.733 124.667 208.4 129.04 208.4C131.653 208.4 134 208.987 136.08 210.16C138.16 211.28 139.787 212.933 140.96 215.12C142.187 217.253 142.8 219.787 142.8 222.72C142.8 226.24 141.813 229.28 139.84 231.84C137.867 234.4 135.013 236.507 131.28 238.16V238.4C135.867 238.987 139.547 240.8 142.32 243.84C145.147 246.827 146.56 250.853 146.56 255.92C146.56 259.867 145.6 263.333 143.68 266.32C141.813 269.307 139.307 271.6 136.16 273.2C133.067 274.8 129.68 275.6 126 275.6C122.48 275.6 119.333 275.04 116.56 273.92C113.787 272.8 112.4 271.253 112.4 269.28ZM207.286 259.04L217.606 218C218.032 216.24 218.192 214.96 218.086 214.16C217.979 213.36 217.419 212.8 216.406 212.48C215.392 212.107 213.632 211.92 211.126 211.92V210H220.486H222.166H228.566V211.92C226.859 211.92 225.552 212.08 224.646 212.4C223.739 212.72 222.992 213.307 222.406 214.16C221.819 215.013 221.312 216.293 220.886 218L206.006 275.84H202.006L186.566 218C186.086 216.293 185.552 215.013 184.966 214.16C184.379 213.307 183.606 212.72 182.646 212.4C181.739 212.08 180.432 211.92 178.726 211.92V210H185.206H193.446H202.806V211.92C200.299 211.92 198.539 212.107 197.526 212.48C196.512 212.8 195.952 213.36 195.846 214.16C195.792 214.96 195.979 216.24 196.406 218L207.046 259.04H207.286ZM179.766 260.4L190.006 227.36L192.566 229.52L177.926 275.84H174.086L158.406 217.92C157.926 216.213 157.392 214.96 156.806 214.16C156.219 213.307 155.446 212.72 154.486 212.4C153.579 212.08 152.272 211.92 150.566 211.92V210H157.046H165.286H174.646V211.92C172.139 211.92 170.379 212.107 169.366 212.48C168.406 212.8 167.872 213.36 167.766 214.16C167.712 214.96 167.899 216.213 168.326 217.92L179.526 260.4H179.766ZM277.695 218.24C277.695 216.48 277.482 215.173 277.055 214.32C276.682 213.467 275.908 212.853 274.735 212.48C273.562 212.107 271.722 211.92 269.215 211.92V210H278.495H280.255H289.535V211.92C287.028 211.92 285.188 212.107 284.015 212.48C282.842 212.853 282.042 213.467 281.615 214.32C281.242 215.173 281.055 216.48 281.055 218.24V275.84H277.055L240.975 217.04C239.642 214.907 238.282 213.52 236.895 212.88C235.508 212.24 233.535 211.92 230.975 211.92V210H237.455H247.695L277.455 258.48H277.695V218.24ZM242.815 214.08V265.76C242.815 267.52 243.002 268.827 243.375 269.68C243.802 270.533 244.602 271.147 245.775 271.52C246.948 271.893 248.815 272.08 251.375 272.08V274H242.015H240.335H230.975V272.08C233.482 272.08 235.322 271.893 236.495 271.52C237.668 271.147 238.468 270.533 238.895 269.68C239.322 268.827 239.535 267.52 239.535 265.76V214.08H242.815ZM324.612 265.76C324.612 267.52 324.799 268.827 325.172 269.68C325.599 270.533 326.399 271.147 327.572 271.52C328.745 271.893 330.585 272.08 333.092 272.08V274H323.812H316.372H307.012V272.08C309.572 272.08 311.439 271.893 312.612 271.52C313.785 271.147 314.559 270.533 314.932 269.68C315.359 268.827 315.572 267.52 315.572 265.76V245.84L301.332 217.36C300.212 215.12 298.985 213.653 297.652 212.96C296.372 212.267 294.479 211.92 291.972 211.92V210H298.452H307.492H316.852V211.92C314.452 211.92 312.799 212.053 311.892 212.32C310.985 212.587 310.559 213.04 310.612 213.68C310.665 214.32 311.039 215.387 311.732 216.88L311.972 217.44L323.332 240.24H323.572L333.812 217.52C333.865 217.413 333.892 217.333 333.892 217.28C333.945 217.173 333.999 217.093 334.052 217.04C334.692 215.493 335.012 214.4 335.012 213.76C335.065 213.067 334.639 212.587 333.732 212.32C332.825 212.053 331.172 211.92 328.772 211.92V210H338.132H340.132H346.612V211.92C344.905 211.92 343.519 212.08 342.452 212.4C341.439 212.667 340.532 213.2 339.732 214C338.985 214.8 338.239 215.973 337.492 217.52L324.612 245.84V265.76Z" fill="white"/>
<defs>
<radialGradient id="paint0_radial_55_14" cx="0" cy="0" r="1" gradientUnits="userSpaceOnUse" gradientTransform="translate(287.5 61.5) rotate(143.86) scale(149.212 120.913)">
<stop stop-color="#1C54E2"/>
<stop offset="1" stop-color="#0A1E53"/>
</radialGradient>
<radialGradient id="paint1_radial_55_14" cx="0" cy="0" r="1" gradientUnits="userSpaceOnUse" gradientTransform="translate(287.5 61.5) rotate(143.86) scale(149.212 120.913)">
<stop stop-color="#1C54E2"/>
<stop offset="1" stop-color="#0A1E53"/>
</radialGradient>
<radialGradient id="paint2_radial_55_14" cx="0" cy="0" r="1" gradientUnits="userSpaceOnUse" gradientTransform="translate(287.5 61.5) rotate(143.86) scale(149.212 120.913)">
<stop stop-color="#1C54E2"/>
<stop offset="1" stop-color="#0A1E53"/>
</radialGradient>
<radialGradient id="paint3_radial_55_14" cx="0" cy="0" r="1" gradientUnits="userSpaceOnUse" gradientTransform="translate(287.5 61.5) rotate(143.86) scale(149.212 120.913)">
<stop stop-color="#1C54E2"/>
<stop offset="1" stop-color="#0A1E53"/>
</radialGradient>
<radialGradient id="paint4_radial_55_14" cx="0" cy="0" r="1" gradientUnits="userSpaceOnUse" gradientTransform="translate(287.5 61.5) rotate(143.86) scale(149.212 120.913)">
<stop stop-color="#1C54E2"/>
<stop offset="1" stop-color="#0A1E53"/>
</radialGradient>
<radialGradient id="paint5_radial_55_14" cx="0" cy="0" r="1" gradientUnits="userSpaceOnUse" gradientTransform="translate(287.5 61.5) rotate(143.86) scale(149.212 120.913)">
<stop stop-color="#1C54E2"/>
<stop offset="1" stop-color="#0A1E53"/>
</radialGradient>
<radialGradient id="paint6_radial_55_14" cx="0" cy="0" r="1" gradientUnits="userSpaceOnUse" gradientTransform="translate(287.5 61.5) rotate(143.86) scale(149.212 120.913)">
<stop stop-color="#1C54E2"/>
<stop offset="1" stop-color="#0A1E53"/>
</radialGradient>
<radialGradient id="paint7_radial_55_14" cx="0" cy="0" r="1" gradientUnits="userSpaceOnUse" gradientTransform="translate(287.5 61.5) rotate(143.86) scale(149.212 120.913)">
<stop stop-color="#1C54E2"/>
<stop offset="1" stop-color="#0A1E53"/>
</radialGradient>
<radialGradient id="paint8_radial_55_14" cx="0" cy="0" r="1" gradientUnits="userSpaceOnUse" gradientTransform="translate(287.5 61.5) rotate(143.86) scale(149.212 120.913)">
<stop stop-color="#1C54E2"/>
<stop offset="1" stop-color="#0A1E53"/>
</radialGradient>
</defs>
</svg>
