<svg width="210" height="210" viewBox="0 0 210 210" fill="none" xmlns="http://www.w3.org/2000/svg">
<circle cx="105" cy="105" r="105" fill="black"/>
<path d="M105.125 11C126.297 11.0027 145.818 18.0486 161.46 29.9159H48.7896C63.2769 18.9248 81.0918 12.0681 100.464 11.1137C102.004 11.0382 103.554 11 105.113 11" fill="#FE7F2D"/>
<path d="M181.384 50.5514C176.383 43.4521 170.41 37.0828 163.658 31.6355H46.5918C39.8401 37.0828 33.8674 43.4521 28.8665 50.5514H181.384Z" fill="#FE7F2D"/>
<path d="M192.321 71.1869C189.792 64.478 186.505 58.1382 182.566 52.271H27.6838C23.7446 58.1382 20.4585 64.478 17.9287 71.1869H192.321Z" fill="#FE7F2D"/>
<path d="M197.475 91.8224C196.625 85.279 195.093 78.9492 192.95 72.9066H17.2998C15.1575 78.9492 13.625 85.279 12.7754 91.8224H197.475Z" fill="#FE7F2D"/>
<path d="M198.25 103.86C198.25 100.372 198.057 96.9297 197.682 93.5421H12.5684C12.1929 96.9297 12 100.372 12 103.86C12 106.759 12.1333 109.627 12.394 112.458H197.856C198.117 109.627 198.25 106.759 198.25 103.86Z" fill="#FE7F2D"/>
<path d="M193.541 133.093C195.553 127.04 196.957 120.711 197.682 114.178H12.5684C13.293 120.711 14.697 127.04 16.7092 133.093H193.541Z" fill="#FE7F2D"/>
<path d="M183.693 153.729C187.459 147.842 190.579 141.504 192.95 134.813H17.2998C19.6714 141.504 22.7905 147.842 26.5566 153.729H183.693Z" fill="#FE7F2D"/>
<path d="M165.728 174.365C172.163 168.86 177.835 162.495 182.566 155.449H27.6838C32.4146 162.495 38.0872 168.86 44.522 174.365H165.728Z" fill="#FE7F2D"/>
<path d="M123.045 195C138.225 192.048 152.086 185.42 163.658 176.084H46.5918C58.1641 185.42 72.0251 192.048 87.2046 195H123.045Z" fill="#FE7F2D"/>
</svg>
