<svg width="212" height="184" viewBox="0 0 212 184" fill="none" xmlns="http://www.w3.org/2000/svg">
<path d="M36.7896 18.9159C36.0483 19.4784 35.3154 20.0516 34.5918 20.6355H151.658C150.935 20.0516 150.202 19.4784 149.46 18.9159H36.7896Z" fill="black"/>
<path d="M169.384 39.5514H16.8662C16.4658 40.12 16.0713 40.6932 15.6836 41.271H170.566C170.179 40.6932 169.784 40.12 169.384 39.5514Z" fill="black"/>
<path d="M180.321 60.1869H5.92871C5.71338 60.7575 5.50391 61.3307 5.2998 61.9066H180.95C180.746 61.3307 180.537 60.7575 180.321 60.1869Z" fill="black"/>
<path d="M185.475 80.8224H0.775391C0.701172 81.394 0.632324 81.9673 0.568359 82.5421H185.682C185.618 81.9673 185.549 81.394 185.475 80.8224Z" fill="black"/>
<path d="M185.856 101.458H0.394043C0.446777 102.033 0.504883 102.606 0.568359 103.178H185.682C185.745 102.606 185.803 102.033 185.856 101.458Z" fill="black"/>
<path d="M181.541 122.093H4.70898C4.90039 122.669 5.09766 123.242 5.2998 123.813H180.95C181.152 123.242 181.35 122.669 181.541 122.093Z" fill="black"/>
<path d="M171.693 142.729H14.5566C14.9263 143.307 15.3018 143.88 15.6836 144.449H170.566C170.948 143.88 171.324 143.307 171.693 142.729Z" fill="black"/>
<path d="M153.728 163.365H32.522C33.2036 163.947 33.8936 164.521 34.5918 165.084H151.658C152.356 164.521 153.046 163.947 153.728 163.365Z" fill="black"/>
<path d="M93.125 0C114.297 0.00265503 133.818 7.04865 149.46 18.9159H36.7896C51.2769 7.92477 69.0918 1.06813 88.4636 0.113693C90.0039 0.0381927 91.554 0 93.113 0" fill="url(#paint0_radial_55_62)"/>
<path d="M169.384 39.5514C164.383 32.4521 158.41 26.0828 151.658 20.6355H34.5918C27.8401 26.0828 21.8674 32.4521 16.8665 39.5514H169.384Z" fill="url(#paint1_radial_55_62)"/>
<path d="M180.321 60.1869C177.792 53.478 174.505 47.1382 170.566 41.271H15.6838C11.7446 47.1382 8.4585 53.478 5.92871 60.1869H180.321Z" fill="url(#paint2_radial_55_62)"/>
<path d="M185.475 80.8224C184.625 74.279 183.093 67.9492 180.95 61.9066H5.2998C3.15747 67.9492 1.625 74.279 0.775391 80.8224H185.475Z" fill="url(#paint3_radial_55_62)"/>
<path d="M186.25 92.8598C186.25 89.3723 186.057 85.9297 185.682 82.5421H0.568359C0.192871 85.9297 0 89.3723 0 92.8598C0 95.7588 0.133301 98.6268 0.394043 101.458H185.856C186.117 98.6268 186.25 95.7588 186.25 92.8598Z" fill="url(#paint4_radial_55_62)"/>
<path d="M181.541 122.093C183.553 116.04 184.957 109.711 185.682 103.178H0.568359C1.29297 109.711 2.69702 116.04 4.70923 122.093H181.541Z" fill="url(#paint5_radial_55_62)"/>
<path d="M171.693 142.729C175.459 136.842 178.579 130.504 180.95 123.813H5.2998C7.67139 130.504 10.7905 136.842 14.5566 142.729H171.693Z" fill="url(#paint6_radial_55_62)"/>
<path d="M153.728 163.365C160.163 157.86 165.835 151.495 170.566 144.449H15.6838C20.4146 151.495 26.0872 157.86 32.522 163.365H153.728Z" fill="url(#paint7_radial_55_62)"/>
<path d="M111.045 184C126.225 181.048 140.086 174.42 151.658 165.084H34.5918C46.1641 174.42 60.0251 181.048 75.2046 184H111.045Z" fill="url(#paint8_radial_55_62)"/>
<path d="M187.21 151.56C190.09 155.507 192.917 158.12 195.69 159.4C198.57 160.573 202.677 161.16 208.01 161.16V165H195.05H176.81H159.85V161.16C163.797 161.16 166.463 161 167.85 160.68C169.237 160.36 169.823 159.773 169.61 158.92C169.397 157.96 168.49 156.307 166.89 153.96L165.13 151.56L124.97 97.96L166.41 49.48C166.623 49.16 166.837 48.8933 167.05 48.68C167.37 48.36 167.637 48.04 167.85 47.72C169.877 45.3733 171.05 43.7733 171.37 42.92C171.797 42.0667 171.317 41.5333 169.93 41.32C168.65 41 165.823 40.84 161.45 40.84V37H179.37H184.01H196.81V40.84C191.477 40.84 187.263 41.3733 184.17 42.44C181.077 43.5067 177.983 45.8533 174.89 49.48L142.09 88.84L187.21 151.56ZM101.93 53.48C101.93 49.96 101.503 47.3467 100.65 45.64C99.9033 43.9333 98.3567 42.7067 96.01 41.96C93.6633 41.2133 89.93 40.84 84.81 40.84V37H103.53H118.41H136.97V40.84C131.957 40.84 128.277 41.2133 125.93 41.96C123.583 42.7067 121.983 43.9333 121.13 45.64C120.383 47.3467 120.01 49.96 120.01 53.48V148.52C120.01 152.04 120.383 154.653 121.13 156.36C121.983 158.067 123.583 159.293 125.93 160.04C128.277 160.787 131.957 161.16 136.97 161.16V165H118.41H103.53H84.81V161.16C89.93 161.16 93.6633 160.787 96.01 160.04C98.3567 159.293 99.9033 158.067 100.65 156.36C101.503 154.653 101.93 152.04 101.93 148.52V53.48Z" fill="white"/>
<defs>
<radialGradient id="paint0_radial_55_62" cx="0" cy="0" r="1" gradientUnits="userSpaceOnUse" gradientTransform="translate(146.75 61.5) rotate(143.86) scale(149.212 120.913)">
<stop stop-color="#1C54E2"/>
<stop offset="1" stop-color="#0A1E53"/>
</radialGradient>
<radialGradient id="paint1_radial_55_62" cx="0" cy="0" r="1" gradientUnits="userSpaceOnUse" gradientTransform="translate(146.75 61.5) rotate(143.86) scale(149.212 120.913)">
<stop stop-color="#1C54E2"/>
<stop offset="1" stop-color="#0A1E53"/>
</radialGradient>
<radialGradient id="paint2_radial_55_62" cx="0" cy="0" r="1" gradientUnits="userSpaceOnUse" gradientTransform="translate(146.75 61.5) rotate(143.86) scale(149.212 120.913)">
<stop stop-color="#1C54E2"/>
<stop offset="1" stop-color="#0A1E53"/>
</radialGradient>
<radialGradient id="paint3_radial_55_62" cx="0" cy="0" r="1" gradientUnits="userSpaceOnUse" gradientTransform="translate(146.75 61.5) rotate(143.86) scale(149.212 120.913)">
<stop stop-color="#1C54E2"/>
<stop offset="1" stop-color="#0A1E53"/>
</radialGradient>
<radialGradient id="paint4_radial_55_62" cx="0" cy="0" r="1" gradientUnits="userSpaceOnUse" gradientTransform="translate(146.75 61.5) rotate(143.86) scale(149.212 120.913)">
<stop stop-color="#1C54E2"/>
<stop offset="1" stop-color="#0A1E53"/>
</radialGradient>
<radialGradient id="paint5_radial_55_62" cx="0" cy="0" r="1" gradientUnits="userSpaceOnUse" gradientTransform="translate(146.75 61.5) rotate(143.86) scale(149.212 120.913)">
<stop stop-color="#1C54E2"/>
<stop offset="1" stop-color="#0A1E53"/>
</radialGradient>
<radialGradient id="paint6_radial_55_62" cx="0" cy="0" r="1" gradientUnits="userSpaceOnUse" gradientTransform="translate(146.75 61.5) rotate(143.86) scale(149.212 120.913)">
<stop stop-color="#1C54E2"/>
<stop offset="1" stop-color="#0A1E53"/>
</radialGradient>
<radialGradient id="paint7_radial_55_62" cx="0" cy="0" r="1" gradientUnits="userSpaceOnUse" gradientTransform="translate(146.75 61.5) rotate(143.86) scale(149.212 120.913)">
<stop stop-color="#1C54E2"/>
<stop offset="1" stop-color="#0A1E53"/>
</radialGradient>
<radialGradient id="paint8_radial_55_62" cx="0" cy="0" r="1" gradientUnits="userSpaceOnUse" gradientTransform="translate(146.75 61.5) rotate(143.86) scale(149.212 120.913)">
<stop stop-color="#1C54E2"/>
<stop offset="1" stop-color="#0A1E53"/>
</radialGradient>
</defs>
</svg>
