<svg width="305" height="201" viewBox="0 0 305 201" fill="none" xmlns="http://www.w3.org/2000/svg">
<path d="M211.863 0C233.039 0 252.565 7.04642 268.21 18.9159H36.6482C38.2249 17.7197 39.841 16.5726 41.4942 15.4766H100.857C105.947 12.1026 111.388 9.21444 117.115 6.8785H176.62C187.491 2.44425 199.391 0 211.863 0Z" fill="#FE7F2D"/>
<path d="M288.134 39.5514C283.133 32.4521 277.16 26.0828 270.408 20.6355H153.318C150.649 22.7883 148.103 25.0851 145.69 27.514H86.1854C83.4958 30.2214 80.9721 33.0929 78.6308 36.1121H19.2679C18.3947 37.2383 17.5468 38.385 16.7252 39.5514H288.134Z" fill="#FE7F2D"/>
<path d="M299.071 60.1869C296.542 53.478 293.255 47.1382 289.316 41.271H134.41C132.915 43.4977 131.514 45.7924 130.213 48.1495H70.7083C69.1725 50.9317 67.7755 53.8009 66.5268 56.7477H7.16385C6.68284 57.8827 6.22383 59.0293 5.78733 60.1869H299.071Z" fill="#FE7F2D"/>
<path d="M304.225 80.8224C303.375 74.279 301.842 67.9492 299.7 61.9065H124.026C123.226 64.1607 122.512 66.4548 121.886 68.785H62.3822C61.6263 71.6006 60.9998 74.4689 60.5094 77.3832H1.14645C0.954729 78.5227 0.783795 79.6692 0.634074 80.8224H304.225Z" fill="#FE7F2D"/>
<path d="M305 92.8598C305 89.3723 304.807 85.9297 304.432 82.5421H119.294C119.043 84.8112 118.873 87.1051 118.789 89.4206H59.2843C59.2427 90.5618 59.2216 91.7084 59.2216 92.8598C59.2216 94.5909 59.2691 96.3109 59.3629 98.0187H0C0.0632942 99.1708 0.147616 100.317 0.25265 101.458H304.606C304.867 98.6268 305 95.7588 305 92.8598Z" fill="#FE7F2D"/>
<path d="M300.291 122.093C302.303 116.04 303.707 109.711 304.432 103.178H119.294C119.551 105.497 119.894 107.791 120.32 110.056H60.8155C61.3632 112.972 62.0476 115.841 62.8619 118.654H3.499C3.83352 119.81 4.18997 120.957 4.56784 122.093H300.291Z" fill="#FE7F2D"/>
<path d="M290.443 142.729C294.21 136.842 297.329 130.504 299.7 123.813H124.026C124.854 126.15 125.774 128.445 126.78 130.692H67.2762C68.5981 133.642 70.0698 136.511 71.6817 139.29H12.3188C12.9933 140.452 13.6924 141.599 14.4153 142.729H290.443Z" fill="#FE7F2D"/>
<path d="M288.357 145.85C288.681 145.386 289.001 144.919 289.316 144.449H134.41C134.759 144.969 135.114 145.487 135.474 146H158.554V159.132L153.324 163.364H163.215L161.146 146H175.564L176.51 158.977L178.531 146H194.481L196.46 159.117L197.441 146H225.897L233.846 163.364H238.446V146H251.632L251.557 145.85H268.697L275.458 160.703C276.754 159.495 278.015 158.251 279.24 156.972L284.342 145.85H288.357Z" fill="#FE7F2D"/>
<path d="M261.198 165.084L263.679 170.034C260.478 172.174 257.136 174.122 253.671 175.861V165.084H261.198Z" fill="#FE7F2D"/>
<path d="M260.336 163.364L253.671 150.067V163.364H260.336Z" fill="#FE7F2D"/>
<path d="M238.446 165.084H234.633L238.446 173.412V165.084Z" fill="#FE7F2D"/>
<path d="M163.42 165.084H153.318C156.406 167.576 159.658 169.875 163.054 171.963H158.291C158.455 172.272 158.608 172.59 158.751 172.918C159.993 175.72 160.504 179.348 160.504 183.575C160.504 183.717 160.504 183.859 160.502 184H165.673L163.42 165.084Z" fill="#FE7F2D"/>
<path d="M185.634 184H187.319L186.482 177.566L185.634 184Z" fill="#FE7F2D"/>
<path d="M207.327 184H209.271V167.683L207.327 184Z" fill="#FE7F2D"/>
<path d="M224.496 184H228.347L224.496 175.588V184Z" fill="#FE7F2D"/>
<path d="M121.558 184L120.154 183.263L119.622 182.978L119.632 182.825H104.485L104.304 184H91.5919C91.4068 183.034 91.2571 181.89 91.1475 180.561H121.67C115.285 178.34 109.216 175.445 103.55 171.963H128.929V180.558L132.457 179.928C136.577 179.193 139.517 178.973 141.419 179.139L141.425 179.139C143.378 179.305 144.124 179.839 144.4 180.171L144.42 180.195L144.44 180.219C144.759 180.584 145.204 181.504 145.204 183.575C145.204 183.721 145.203 183.862 145.199 184H121.558Z" fill="#FE7F2D"/>
<path d="M133.125 163.364L137.209 159.95H121.204V151.327H115.8C116.164 151.84 116.493 152.388 116.786 152.971C118.162 155.667 118.817 159.217 118.979 163.364H133.125Z" fill="#FE7F2D"/>
<path d="M103.507 163.364C103.221 162.108 102.898 161.297 102.611 160.818L102.566 160.744L102.526 160.667C102.318 160.27 102.071 160.06 101.683 159.919L101.604 159.891L101.527 159.857C101.003 159.633 100.035 159.425 98.4336 159.425C96.0306 159.425 94.6247 159.913 93.8327 160.494L93.806 160.514L93.779 160.533C93.1954 160.941 92.5322 161.762 92.006 163.364H103.507Z" fill="#FE7F2D"/>
<path d="M76.0216 163.364C76.1989 162.143 76.4118 160.996 76.6621 159.925H66.1816L63.6539 163.364H76.0216Z" fill="#FE7F2D"/>
<path d="M30.2129 161.451V159.925H28.5763C29.1157 160.44 29.6612 160.949 30.2129 161.451Z" fill="#FE7F2D"/>
<path d="M45.7379 159.925V163.043L47.9666 159.925H45.7379Z" fill="#FE7F2D"/>
<path d="M80.3449 151.752C80.4591 151.608 80.5757 151.466 80.6946 151.327H79.997C80.1126 151.469 80.2285 151.611 80.3449 151.752Z" fill="#FE7F2D"/>
<path d="M75.5049 180.561H62.3072C66.4346 181.996 70.6944 183.15 75.0634 184H75.8019C75.6777 182.907 75.579 181.76 75.5049 180.561Z" fill="#FE7F2D"/>
<path d="M33.2129 149H42.7379V172.4L59.4629 149H70.4879L52.1879 173.9V174.125L73.3379 200H61.4129L42.7379 175.7V200H33.2129V149ZM98.4336 200.675C93.1336 200.675 89.0586 199.9 86.2086 198.35C83.3586 196.75 81.3336 194.1 80.1336 190.4C78.9336 186.7 78.3336 181.425 78.3336 174.575C78.3336 167.675 78.9336 162.35 80.1336 158.6C81.3336 154.85 83.3586 152.2 86.2086 150.65C89.0586 149.05 93.1336 148.25 98.4336 148.25C102.884 148.25 106.334 148.725 108.784 149.675C111.234 150.575 113.009 152.125 114.109 154.325C115.209 156.475 115.834 159.55 115.984 163.55H106.609C106.259 161.7 105.784 160.275 105.184 159.275C104.634 158.225 103.809 157.5 102.709 157.1C101.659 156.65 100.234 156.425 98.4336 156.425C95.6836 156.425 93.5586 156.975 92.0586 158.075C90.5586 159.125 89.4836 160.95 88.8336 163.55C88.2336 166.15 87.9336 169.825 87.9336 174.575C87.9336 179.275 88.2336 182.9 88.8336 185.45C89.4836 188 90.5586 189.825 92.0586 190.925C93.5586 191.975 95.6836 192.5 98.4336 192.5C101.384 192.5 103.459 192.05 104.659 191.15C105.859 190.2 106.659 188.425 107.059 185.825H116.434C116.184 189.725 115.484 192.75 114.334 194.9C113.184 197 111.359 198.5 108.859 199.4C106.409 200.25 102.934 200.675 98.4336 200.675ZM137.629 200.675C134.629 200.675 132.054 200.45 129.904 200C127.804 199.55 125.554 198.75 123.154 197.6V188.225C126.204 189.825 128.779 190.95 130.879 191.6C133.029 192.25 135.254 192.575 137.554 192.575C140.204 192.575 142.304 192.3 143.854 191.75C145.404 191.15 146.504 190.2 147.154 188.9C147.854 187.6 148.204 185.825 148.204 183.575C148.204 181.175 147.704 179.4 146.704 178.25C145.704 177.05 144.029 176.35 141.679 176.15C139.379 175.95 136.129 176.225 131.929 176.975V168.275L145.204 157.175V156.95H124.204V149H155.554V157.7L142.579 168.2V168.575C146.229 168.225 149.129 168.5 151.279 169.4C153.429 170.25 155.004 171.825 156.004 174.125C157.004 176.375 157.504 179.525 157.504 183.575C157.504 187.875 156.854 191.25 155.554 193.7C154.304 196.15 152.254 197.925 149.404 199.025C146.554 200.125 142.629 200.675 137.629 200.675ZM164.525 149H172.775L175.7 189.125H175.775L176.3 179.825L181.1 149H191.9L196.55 179.825L197.15 189.125H197.225L200.225 149H208.475L202.4 200H192.425L186.65 155.6H186.35L180.5 200H170.6L164.525 149ZM212.271 149H223.971L242.271 188.975H242.496L241.446 178.325V149H250.671V200H238.971L220.671 160.025H220.446L221.496 170.675V200H212.271V149ZM271.641 179.225L256.416 148.85H266.766L276.291 169.775H276.666L286.266 148.85H296.541L281.241 179.225V200H271.641V179.225Z" fill="black"/>
</svg>
