<?xml version="1.0" encoding="UTF-8"?>
<svg id="Layer_1" data-name="Layer 1" xmlns="http://www.w3.org/2000/svg" viewBox="0 0 960 960">
  <defs>
    <style>
      .cls-1 {
        stroke-width: 0px;
      }

      .cls-1, .cls-2 {
        fill: #42475c;
      }

      .cls-3 {
        fill: none;
      }

      .cls-3, .cls-2 {
        stroke: #42475c;
        stroke-miterlimit: 52.92;
        stroke-width: .78px;
      }
    </style>
  </defs>
  <path class="cls-1" d="M513.5,390.81c0-23.9-24.87-24.79-53.94-30.15v-5.12h93.24l67,95.45h.64l63.73-95.45h39.91v213.6h-28.7v-197.76h-.64l-67.36,108.88-13.06,16.81-82.96-125.69h-.68v197.76h-17.17v-178.33Z"/>
  <path class="cls-1" d="M372.53,454.13c-15.88-11.65-27.89-25.03-27.89-46.6,0-24.75,16.24-40.55,40.15-40.55s44.46,10.92,54.78,16.61v-28.38c-9.63-2.46-27.57-6.49-49.14-6.49-44.14,0-72.36,24.35-72.36,68.57,0,9.43,1.41,17.7,3.83,25.03,18.18,3.27,35.19,7.22,50.63,11.81"/>
  <path class="cls-1" d="M189.2,447.8c-58.09,0-111.86,16.93-155.6,28.02,5.32,3.51,10.6-3.43,15.92.12,37.53-8.43,81.83-13.3,129.23-13.3,135.36,0,248.27,36.64,248.27,85.42,0,25.48-33.09,51.36-80.86,67.48,66.03-16.93,108.88-44.18,108.88-74.94,0-51.27-119-92.79-265.85-92.79"/>
  <path class="cls-1" d="M877.34,555.8h-34.83c-23.54,0-26.44,0-26.44-18.3v-66.35h56.72v-16.12h-56.72v-66.19c0-17.05,1.29-20.84,19.71-20.84h33.82c26.77,0,26.44,9.8,29.67,26.2h10.04l-1.61-38.5h-169.71v5.36c28.06,3.79,50.03,9.8,50.03,27.77v179.26h125.12l2.26-42.89s-16.12,30.6-38.05,30.6"/>
  <path class="cls-1" d="M96.81,568.53h20.72l79.37-186.88,71.75,186.76c21.61-.56,23.98,10.6,34.02,12.46l-90.34-230.74h-80.98v5.04c16.41,3.59,49.74,6.29,49.74,13.99,0,4.76-2.62,10.72-4.92,16.04l-79.37,183.33Z"/>
  <path class="cls-1" d="M90.68,669.47c.61,1.25,1.21,3.1,1.33,3.99l.09.73-.8,1.01c-1.77,2.22-5.04,5.24-11.13,5.48-2.22.03-4.64-.32-6.61-1.41l-1.17-.64,2.02-3.47.8.48c1.65.93,3.31,1.53,5.76,1.53s5.04-1.53,5.93-2.5l.65-.73-.18-.73c-.2-.97-.61-2.14-1.21-3.1-.52-.97-1.21-1.9-2.18-3.14l-1.37-1.69c-1.09-1.37-2.22-2.86-2.74-3.99-.61-1.21-.93-2.14-1.09-3.02l-.18-.8.52-.61c1.69-1.97,4.6-4.11,7.86-5,2.46-.77,5.32-1.17,8.51-.93l1.21.09-1.21,3.59-1.77-.12c-1.13-.03-2.34-.09-4.39.23-2.18.36-4.15,1.41-5.36,2.46l-.73.61.18.64c.18.77.68,1.93,1.33,2.86.64.97,1.33,1.69,2.26,2.9l1.37,1.73c.97,1.29,1.85,2.54,2.3,3.55"/>
  <path class="cls-3" d="M90.68,669.47c.61,1.25,1.21,3.1,1.33,3.99l.09.73-.81,1.01c-1.77,2.22-5.04,5.24-11.13,5.48-2.22.03-4.64-.32-6.61-1.41l-1.17-.64,2.02-3.47.81.48c1.65.93,3.31,1.53,5.76,1.53s5.04-1.53,5.93-2.5l.64-.73-.18-.73c-.2-.97-.61-2.14-1.21-3.1-.52-.97-1.21-1.9-2.18-3.14l-1.37-1.69c-1.09-1.37-2.22-2.86-2.74-3.99-.61-1.21-.93-2.14-1.09-3.02l-.18-.81.52-.61c1.69-1.97,4.6-4.11,7.86-5,2.46-.77,5.32-1.17,8.51-.93l1.21.09-1.21,3.59-1.77-.12c-1.13-.03-2.34-.09-4.39.23-2.18.36-4.15,1.41-5.36,2.46l-.73.61.18.65c.18.77.68,1.93,1.33,2.86.65.97,1.33,1.69,2.26,2.9l1.37,1.73c.97,1.29,1.85,2.54,2.3,3.55h0Z"/>
  <path class="cls-2" d="M121.44,676.65h11.13l-1.01,3.31h-15.16l8.02-26.44v-2.38h15.36l-1.01,3.1h-10.56l-2.9,9.39h10.64l-1.01,3.1h-10.52l-2.99,9.92Z"/>
  <path class="cls-2" d="M167.15,679.95h-4.88l7.74-25.48h-8.02l1.05-3.35h19.91l-1.09,3.35h-7.82l-6.89,23.06v2.42Z"/>
  <path class="cls-2" d="M207.18,679.95h-4.88l7.74-25.48h-8.02l1.05-3.35h19.91l-1.09,3.35h-7.78l-6.93,23.06v2.42Z"/>
  <path class="cls-2" d="M251.4,651.13l-7.82,26.4v2.42h-4.72l7.78-26.44v-2.38h4.76Z"/>
  <path class="cls-2" d="M291.71,679.95l-.81-.97c-1.29-1.49-2.9-4.23-4.15-7.46-1.61-4.11-2.5-9.35-2.5-13.42v-2.66l-6.77,22.09v2.42h-4.68l8.91-28.82h6.13v1.93c0,4.07.18,8.87,1.41,13.42.97,3.83,2.46,6.77,3.31,8.06l.44.68,6.65-21.73v-2.38h4.8l-8.99,28.82h-3.75Z"/>
  <path class="cls-1" d="M348.35,650.89l3.47.2-1.29,3.63-3.14-.23c-8.71-.65-13.54,3.1-15.32,9.59-1.37,5.04.85,9.63,2.66,11.93l.77.93.73-.12c1.73-.32,3.87-1.25,6.05-2.62,2.54-1.65,3.63-3.67,4.03-4.84l.4-1.05h-6.93l1.01-3.02h10.88l-.85,2.9c-.97,3.59-2.74,6.21-5.52,8.14-3.59,2.54-8.26,3.95-10.2,4.27l-1.49.29-1.09-1.21c-3.75-4.07-6.13-9.59-4.96-15.36,1.85-9.11,10.56-14.11,20.8-13.42"/>
  <path class="cls-3" d="M348.35,650.89l3.47.2-1.29,3.63-3.14-.23c-8.71-.65-13.54,3.1-15.32,9.59-1.37,5.04.85,9.63,2.66,11.93l.77.93.73-.12c1.73-.32,3.87-1.25,6.05-2.62,2.54-1.65,3.63-3.67,4.03-4.84l.4-1.05h-6.93l1.01-3.02h10.88l-.85,2.9c-.97,3.59-2.74,6.21-5.52,8.14-3.59,2.54-8.26,3.95-10.2,4.27l-1.49.29-1.09-1.21c-3.75-4.07-6.13-9.59-4.96-15.36,1.85-9.11,10.56-14.11,20.8-13.42v-.03Z"/>
  <path class="cls-2" d="M411.03,679.95h-4.84l7.74-25.48h-8.06l1.09-3.35h19.87l-1.09,3.35h-7.78l-6.93,23.06v2.42Z"/>
  <path class="cls-2" d="M450.78,666.73l-3.35,10.8v2.42h-4.8l8.14-26.44v-2.38h4.8l-3.83,12.38h12.62l3.06-10v-2.38h4.84l-8.14,26.4v2.42h-4.8l4.07-13.22h-12.62Z"/>
  <path class="cls-2" d="M498.54,676.65h11.13l-.97,3.31h-15.2l8.06-26.44v-2.38h15.36l-1.01,3.1h-10.56l-2.9,9.39h10.6l-.97,3.1h-10.52l-3.02,9.92Z"/>
  <path class="cls-1" d="M573.32,669.47c.61,1.25,1.21,3.1,1.33,3.99l.09.73-.81,1.01c-1.77,2.22-5.04,5.24-11.13,5.48-2.22.03-4.64-.32-6.61-1.41l-1.21-.64,2.06-3.47.8.48c1.65.93,3.31,1.53,5.76,1.53s5.04-1.53,5.93-2.5l.65-.73-.18-.73c-.2-.97-.61-2.14-1.17-3.1-.56-.97-1.25-1.9-2.22-3.14l-1.37-1.69c-1.09-1.37-2.22-2.86-2.74-3.99-.61-1.21-.93-2.14-1.09-3.02l-.18-.8.52-.61c1.69-1.97,4.64-4.11,7.86-5,2.46-.77,5.32-1.17,8.51-.93l1.21.09-1.21,3.59-1.77-.12c-1.17-.03-2.34-.09-4.39.23-2.18.36-4.15,1.41-5.36,2.46l-.73.61.15.64c.2.77.68,1.93,1.33,2.86.64.97,1.33,1.69,2.26,2.9l1.37,1.73c.97,1.29,1.85,2.54,2.3,3.55"/>
  <path class="cls-3" d="M573.32,669.47c.61,1.25,1.21,3.1,1.33,3.99l.09.73-.81,1.01c-1.77,2.22-5.04,5.24-11.13,5.48-2.22.03-4.64-.32-6.61-1.41l-1.21-.64,2.06-3.47.81.48c1.65.93,3.31,1.53,5.76,1.53s5.04-1.53,5.93-2.5l.65-.73-.18-.73c-.2-.97-.61-2.14-1.17-3.1-.56-.97-1.25-1.9-2.22-3.14l-1.37-1.69c-1.09-1.37-2.22-2.86-2.74-3.99-.61-1.21-.93-2.14-1.09-3.02l-.18-.81.52-.61c1.69-1.97,4.64-4.11,7.86-5,2.46-.77,5.32-1.17,8.51-.93l1.21.09-1.21,3.59-1.77-.12c-1.17-.03-2.34-.09-4.39.23-2.18.36-4.15,1.41-5.36,2.46l-.73.61.18.65c.2.77.68,1.93,1.33,2.86.64.97,1.33,1.69,2.26,2.9l1.37,1.73c.97,1.29,1.85,2.54,2.3,3.55h0Z"/>
  <path class="cls-2" d="M607.46,679.95h-4.84l7.74-25.48h-8.06l1.09-3.35h19.87l-1.09,3.35h-7.78l-6.93,23.06v2.42Z"/>
  <path class="cls-2" d="M652.89,672.45h-10.68l-5.4,7.9-3.99-.97,20.07-28.26h5.6l-.56,2.3c-1.01,4.35-1.77,9.92-1.37,16.16.29,4.43.93,7.3,1.37,8.95l.29.97-4.03.85-.23-.85c-.18-.68-.36-1.45-.52-2.42-.18-1.13-.36-2.78-.4-3.67l-.14-.97ZM654.1,654.96l-9.76,14.39h8.22v-.97c0-1.41,0-2.02.18-4.72.18-2.26.52-5.12.93-6.89l.43-1.81Z"/>
  <path class="cls-2" d="M702.03,679.95l-.85-.97c-1.25-1.49-2.86-4.23-4.15-7.46-1.61-4.11-2.46-9.35-2.46-13.42v-2.66l-6.77,22.09v2.42h-4.72l8.91-28.82h6.17v1.93c0,4.07.18,8.87,1.37,13.42,1.01,3.83,2.5,6.77,3.31,8.06l.44.68,6.65-21.73v-2.38h4.84l-9.03,28.82h-3.71Z"/>
  <path class="cls-1" d="M744.68,680.15l-8.75.15,8.22-26.81v-2.38h17.62l1.09,2.3c2.22,4.6,2.22,10.76.23,15.24-3.71,8.14-12.05,11.41-18.42,11.49M748.1,654.22l-6.85,22.57h2.34c5,0,11.09-1.69,14.67-7.9,2.94-5.12,2.18-10.88.85-13.54l-.56-1.13h-10.44Z"/>
  <path class="cls-3" d="M744.68,680.15l-8.75.18,8.22-26.81v-2.38h17.62l1.09,2.3c2.22,4.6,2.22,10.76.23,15.24-3.71,8.14-12.05,11.41-18.42,11.49h0ZM748.1,654.23l-6.85,22.57h2.34c5,0,11.09-1.69,14.67-7.9,2.94-5.12,2.18-10.88.85-13.54l-.56-1.13h-10.44Z"/>
  <path class="cls-2" d="M803.29,672.45h-10.72l-5.36,7.9-3.99-.97,20.07-28.26h5.56l-.52,2.3c-1.01,4.35-1.77,9.92-1.37,16.16.29,4.43.93,7.3,1.37,8.95l.29.97-4.03.85-.23-.85c-.2-.68-.36-1.45-.52-2.42-.18-1.13-.36-2.78-.44-3.67l-.1-.97ZM804.5,654.96l-9.75,14.39h8.22v-.97c0-1.41,0-2.02.18-4.72.18-2.26.52-5.12.93-6.89l.43-1.81Z"/>
  <path class="cls-1" d="M845.7,669.63l-.29-.97h-4.47l-2.66,8.87v2.42h-4.8l8.06-26.44v-2.38h14.95l.73,1.45c1.25,2.58,1.85,6.13.29,9.19-1.65,3.18-4.96,4.88-7.18,5.6l-.97.32.61,2.18c.29,1.01,1.37,3.27,2.22,4.31,1.01,1.41,2.7,3.31,6.29,2.98l.93-.12-1.09,3.39-1.73.09c-3.31.15-6.25-1.77-8.14-4.68-1.29-1.9-2.18-3.99-2.74-6.21M845.4,654.24l-3.55,11.29h1.61c4.11,0,6.85-1.05,9.07-3.1,2.1-1.97,2.18-5.08,1.37-7.22l-.4-.97h-8.1Z"/>
  <path class="cls-3" d="M845.7,669.63l-.29-.97h-4.47l-2.66,8.87v2.42h-4.8l8.06-26.44v-2.38h14.95l.73,1.45c1.25,2.58,1.85,6.13.29,9.19-1.65,3.18-4.96,4.88-7.18,5.6l-.97.32.61,2.18c.29,1.01,1.37,3.27,2.22,4.31,1.01,1.41,2.7,3.31,6.29,2.98l.93-.12-1.09,3.39-1.73.09c-3.31.18-6.25-1.77-8.14-4.68-1.29-1.9-2.18-3.99-2.74-6.21h0ZM845.4,654.23l-3.55,11.29h1.61c4.11,0,6.85-1.05,9.07-3.1,2.1-1.97,2.18-5.08,1.37-7.22l-.4-.97h-8.1Z"/>
  <path class="cls-1" d="M891.08,680.15l-8.75.15,8.18-26.81v-2.38h17.62l1.13,2.3c2.22,4.6,2.22,10.76.2,15.24-3.71,8.14-12.01,11.41-18.38,11.49M894.51,654.22l-6.85,22.57h2.3c5,0,11.09-1.69,14.71-7.9,2.94-5.12,2.14-10.88.8-13.54l-.52-1.13h-10.44Z"/>
  <path class="cls-3" d="M891.08,680.15l-8.75.18,8.18-26.81v-2.38h17.62l1.13,2.3c2.22,4.6,2.22,10.76.2,15.24-3.71,8.14-12.01,11.41-18.38,11.49h0ZM894.51,654.23l-6.85,22.57h2.3c5,0,11.09-1.69,14.71-7.9,2.94-5.12,2.14-10.88.81-13.54l-.52-1.13h-10.44Z"/>
  <g>
    <path class="cls-1" d="M471.37,239.08c-19.47,10.4-30.15,28.38-24.11,39.83,6.09,11.49,28.9,12.33,48.37,1.93,19.47-10.4,28.26-28.1,22.21-39.5-6.09-11.49-26.97-12.66-46.48-2.26M494.27,280.6c-17.86,9.55-40.55,8.06-46.12-2.42-5.56-10.48,6.25-28.06,24.11-37.57,17.9-9.51,38.62-9.88,45.03,2.26,5.6,10.48-5.12,28.22-23.02,37.73"/>
    <path class="cls-1" d="M492.46,242.26c-64.7,25.84-98.64,94.73-82.31,152.05l1.61-1.41c-19.43-54.06,21.12-124.56,83.4-149.27,69.82-27.69,130.24,6.77,150.16,63.73l-.18-.12c-17.45-61.35-85.66-91.79-152.7-64.98"/>
    <path class="cls-1" d="M467.22,233.44c-61.39,32.65-84.61,109.08-51.84,170.67,32.77,61.63,109.12,85.09,170.51,52.44,61.39-32.65,84.65-109.04,51.88-170.67-32.77-61.63-109.12-85.1-170.55-52.44M409.54,309.46c8.55-30.76,28.82-58.09,58.81-74.01,59.14-31.44,136.17-8.67,167.73,50.67,31.56,59.38,13.3,133.99-52.36,169.18-62.6,33.98-136.77,6.89-168.46-53.33-12.42-23.62-12.54-49.66-9.35-74.57.77-6.09,1.97-12.05,3.63-17.94"/>
    <path class="cls-1" d="M546.43,303.45c-35.43-46.2-77.84-69.86-92.51-61.88l-3.14,1.73c14.11-7.66,60.99,18.86,95.05,63.53,40.47,53.05,59.82,115.81,54.02,135.89-.52,1.17-2.42,5.6-2.42,5.6.68-.93,1.33-1.97,1.85-3.22,9.19-22.45-11.77-88.12-52.85-141.65"/>
    <path class="cls-1" d="M562.72,467.07c-42.37,1.73-87.15-48.33-97.63-118.96-7.22-62.72,16.37-118.51,54.62-126.49,1.97-.44,3.99-.68,5.97-.85l.44-2.06c-1.97.15-3.99.4-6.01.85-39.58,8.34-66.51,62.76-57.6,127.54,9.47,68.53,54.18,123.11,99.12,119.72,1.05-.09.2,1.05-.85,1.13l1.93-.89Z"/>
    <path class="cls-1" d="M590.05,282.13c-51.23-46.03-126.86-45.67-170.11-5.64l1.93.8c41.8-38.42,118.27-37.09,167.41,7.34,53.09,50.15,54.94,121.17,10.6,162.37l.03-.2c46.36-42.77,43.21-116.94-9.88-164.67"/>
    <path class="cls-1" d="M641.72,297.57c.09.85.12,1.73.18,2.58.03,2.1,4.51,19.07.97,32.89-6.21,28.66-27.25,55.22-58.65,76.31-42.25,28.34-92.19,40.07-129.19,25.56-12.7-3.51-23.46-11.93-31.24-20.8-1.81-2.06-3.43-4.23-4.88-6.49,2.18,4.15,4.76,8.43,8.14,12.05,31.12,33.58,102.31,29.75,158.74-8.18,48.49-32.57,70.5-79.93,55.95-113.92"/>
    <path class="cls-1" d="M400.91,335.38c.18.32.32.61.48.89,16.53,30.52,70.66,32.45,121.62,4.15,51.48-28.5,77.4-75.22,61.43-106.54l-2.9-.36c15.04,29.51-9.55,77.28-58.33,104.28-48.69,27.05-104.73,26.16-119.76-3.35l-2.54.93Z"/>
    <path class="cls-1" d="M49.49,728.69h876.43l-431.8,20.8-444.62-20.8Z"/>
  </g>
</svg>