<svg width="266" height="266" viewBox="0 0 266 266" fill="none" xmlns="http://www.w3.org/2000/svg">
<rect x="4" y="4" width="258" height="258" fill="black"/>
<path d="M8 113C99.4539 113 176.049 176.61 195.96 262H28C19.6519 262 12.2996 257.738 8 251.271V113Z" fill="#FE7F2D"/>
<rect x="4" y="243" width="21" height="19" fill="#FE7F2D"/>
<path d="M204.637 246.855C205.361 249.428 206.041 252.025 206.677 254.643L202.789 255.587C202.165 253.015 201.497 250.465 200.786 247.939L204.637 246.855ZM218.97 246.509C218.808 249.152 218.617 251.838 218.396 254.567L214.409 254.246C214.627 251.542 214.816 248.881 214.977 246.265L218.97 246.509ZM228.5 246.149C227.962 248.793 227.422 251.447 226.884 254.107L222.964 253.313C223.503 250.651 224.043 247.996 224.581 245.351L228.5 246.149ZM199.694 231.532C200.612 234.045 201.484 236.584 202.311 239.147L198.503 240.375C197.692 237.859 196.836 235.369 195.937 232.904L199.694 231.532ZM219.604 230.422C219.561 233.084 219.485 235.795 219.374 238.555L215.377 238.394C215.486 235.666 215.562 232.987 215.604 230.357L219.604 230.422ZM231.732 230.25C231.197 232.896 230.657 235.554 230.114 238.223L226.194 237.426C226.737 234.758 227.277 232.101 227.812 229.457L231.732 230.25ZM193.581 216.628C194.695 219.064 195.764 221.529 196.786 224.022L193.085 225.54C192.083 223.096 191.035 220.679 189.943 218.291L193.581 216.628ZM219.422 214.35C219.529 216.979 219.597 219.661 219.626 222.397L215.627 222.44C215.598 219.743 215.53 217.1 215.425 214.513L219.422 214.35ZM234.905 214.33C234.387 216.982 233.859 219.649 233.324 222.33L229.401 221.548C229.936 218.871 230.462 216.208 230.979 213.562L234.905 214.33ZM186.287 202.253C187.598 204.593 188.863 206.964 190.081 209.365L186.514 211.175C185.32 208.822 184.082 206.5 182.798 204.208L186.287 202.253ZM218.2 198.224C218.498 200.837 218.75 203.511 218.955 206.246L214.966 206.546C214.764 203.86 214.517 201.237 214.226 198.677L218.2 198.224ZM237.935 198.375C237.45 201.025 236.95 203.695 236.439 206.383L232.51 205.636C233.019 202.956 233.517 200.296 234 197.655L237.935 198.375ZM177.826 188.531C179.331 190.755 180.789 193.014 182.201 195.304L178.796 197.402C177.413 195.16 175.986 192.95 174.513 190.772L177.826 188.531ZM215.645 182.241C216.193 184.844 216.684 187.518 217.119 190.263L213.169 190.889C212.744 188.207 212.264 185.6 211.73 183.065L215.645 182.241ZM240.713 182.375C240.282 185.02 239.831 187.69 239.362 190.381L235.422 189.695C235.888 187.017 236.336 184.361 236.765 181.731L240.713 182.375ZM168.229 175.576C169.921 177.666 171.567 179.791 173.167 181.951L169.952 184.332C168.386 182.218 166.776 180.138 165.12 178.093L168.229 175.576ZM211.365 166.559C212.226 169.07 213.019 171.661 213.744 174.333L209.885 175.381C209.181 172.789 208.413 170.282 207.582 167.856L211.365 166.559ZM243.109 166.308C242.757 168.946 242.378 171.615 241.975 174.31L238.019 173.719C238.419 171.042 238.795 168.395 239.145 165.779L243.109 166.308ZM157.551 163.491C159.419 165.43 161.243 167.406 163.021 169.419L160.023 172.067C158.283 170.098 156.499 168.164 154.671 166.267L157.551 163.491ZM145.872 152.374C147.902 154.146 149.888 155.957 151.83 157.806L149.072 160.703C147.172 158.894 145.228 157.121 143.241 155.387L145.872 152.374ZM204.946 151.595C206.195 153.959 207.363 156.414 208.451 158.96L204.772 160.531C203.726 158.083 202.605 155.728 201.409 153.463L204.946 151.595ZM244.951 150.059C244.709 152.726 244.43 155.43 244.118 158.169L240.145 157.716C240.454 155.005 240.729 152.331 240.968 149.697L244.951 150.059ZM133.291 142.299C135.465 143.894 137.598 145.529 139.688 147.203L137.188 150.325C135.142 148.687 133.054 147.086 130.925 145.524L133.291 142.299ZM196.034 137.892C197.718 140.011 199.311 142.227 200.813 144.542L197.458 146.72C196.024 144.51 194.505 142.398 192.902 140.38L196.034 137.892ZM245.958 133.747C245.88 136.441 245.752 139.185 245.576 141.974L241.584 141.723C241.757 138.975 241.884 136.276 241.96 133.631L245.958 133.747ZM119.912 133.312C122.213 134.724 124.474 136.177 126.694 137.668L124.465 140.988C122.29 139.528 120.075 138.106 117.82 136.723L119.912 133.312ZM184.636 126.139C186.725 127.907 188.723 129.771 190.626 131.733L187.755 134.518C185.944 132.651 184.043 130.877 182.053 129.192L184.636 126.139ZM105.843 125.438C108.252 126.664 110.624 127.931 112.957 129.236L111.004 132.726C108.717 131.447 106.392 130.206 104.029 129.004L105.843 125.438ZM245.73 117.395C245.898 120.053 245.997 122.774 246.031 125.554L242.031 125.603C241.998 122.886 241.902 120.233 241.739 117.647L245.73 117.395ZM91.2295 118.694C93.7207 119.732 96.1763 120.81 98.5967 121.927L96.9219 125.559C94.5472 124.463 92.1368 123.405 89.6914 122.387L91.2295 118.694ZM171.224 116.787C173.616 118.156 175.922 119.61 178.14 121.153L175.855 124.437C173.737 122.964 171.531 121.572 169.237 120.26L171.224 116.787ZM76.1572 113.05C78.7198 113.907 81.2498 114.803 83.7461 115.737L82.3438 119.483C79.8921 118.566 77.4068 117.686 74.8887 116.844L76.1572 113.05ZM156.474 109.818C159.051 110.815 161.553 111.882 163.977 113.022L162.272 116.642C159.938 115.543 157.525 114.513 155.031 113.549L156.474 109.818ZM60.7188 108.471C63.334 109.152 65.9191 109.871 68.4727 110.628L67.3359 114.463C64.8253 113.719 62.2827 113.011 59.71 112.341L60.7188 108.471ZM141.031 104.907C143.691 105.592 146.284 106.334 148.812 107.134L147.604 110.947C145.15 110.17 142.626 109.448 140.033 108.78L141.031 104.907ZM45.0508 104.923C47.7013 105.436 50.3237 105.986 52.917 106.573L52.0342 110.475C49.4819 109.897 46.9009 109.355 44.291 108.85L45.0508 104.923ZM243.605 101.016C244.157 103.659 244.607 106.39 244.964 109.201L240.995 109.704C240.651 106.988 240.218 104.363 239.69 101.832L243.605 101.016ZM37.1514 103.225C36.7108 103.251 36.2694 103.279 35.8272 103.307C36.2608 103.375 36.6938 103.443 37.126 103.514L36.4854 107.462C33.8974 107.042 31.2823 106.656 28.6406 106.306L29.0947 102.871L28.8789 99.7538C31.5852 99.5655 34.2629 99.3912 36.9111 99.2314L37.1514 103.225ZM125.207 101.601C127.914 102.049 130.565 102.541 133.157 103.08L132.343 106.996C129.807 106.469 127.211 105.987 124.555 105.548L125.207 101.601ZM19.5215 99.4179C19.7024 99.3394 19.8838 99.2608 20.0645 99.1825L20.5781 100.368C20.6829 100.36 20.7879 100.352 20.8926 100.344L20.9629 101.259L21.0156 101.38C21.0791 101.386 21.1426 101.393 21.2061 101.399L21.1709 101.736L21.6543 102.853C21.4717 102.933 21.2893 103.012 21.1064 103.092L21.2031 104.332C21.1014 104.34 20.9993 104.347 20.8975 104.355L20.792 105.378C19.4745 105.241 18.1505 105.112 16.8203 104.992C15.972 104.916 15.2655 104.31 15.0596 103.483C15.0063 103.269 14.9909 103.052 15.0078 102.841C15.0038 102.784 15.0012 102.728 15.002 102.672C14.9957 101.735 15.6425 100.925 16.543 100.715C16.8505 100.58 17.1581 100.447 17.4648 100.313C18.0841 99.9138 18.7061 99.5157 19.3301 99.1181L19.5215 99.4179ZM109.163 99.5263C111.888 99.7902 114.564 100.09 117.189 100.428L116.68 104.394C114.098 104.063 111.464 103.768 108.778 103.508L109.163 99.5263ZM93.1211 98.4042C95.8474 98.5279 98.5304 98.6809 101.169 98.8642L100.892 102.854C98.2866 102.674 95.6363 102.523 92.9404 102.4L93.1211 98.4042ZM53.1035 102.431C50.4593 102.532 47.782 102.65 45.0723 102.786L44.8721 98.7909C47.5964 98.6545 50.289 98.5357 52.9492 98.4335L53.1035 102.431ZM69.0371 102.029C66.4076 102.058 63.7416 102.107 61.04 102.176L60.9385 98.1767C63.6585 98.1074 66.3434 98.0579 68.9932 98.0292L69.0371 102.029ZM77.0449 98.0077C79.7444 98.023 82.4055 98.0616 85.0283 98.1249L84.9316 102.124C82.3347 102.061 79.6984 102.023 77.0225 102.008L77.0449 98.0077ZM34.625 92.9863C34.7879 92.9182 34.9506 92.85 35.1133 92.7822L36.6533 96.4745C34.2084 97.494 31.7359 98.5346 29.2363 99.5976L28.583 98.0644C28.4987 98.1158 28.4143 98.1672 28.3301 98.2187L26.2441 94.8056C28.5466 93.3987 30.8769 92.0022 33.2305 90.6161L34.625 92.9863ZM238.543 85.1806C239.678 87.6604 240.667 90.2605 241.521 92.9716L237.706 94.1738C236.897 91.6073 235.967 89.1631 234.906 86.8456L238.543 85.1806ZM49.3047 86.0458C47.3082 87.1537 45.326 88.268 43.3574 89.3857C45.6422 88.4554 47.9023 87.5436 50.1387 86.6523L51.6191 90.3681C49.0799 91.3801 46.509 92.4176 43.9063 93.4804L42.4453 89.9023C42.3819 89.9384 42.3183 89.9745 42.2549 90.0107L40.2734 86.5361C42.6178 85.1989 44.9824 83.8695 47.3643 82.5478L49.3047 86.0458ZM66.5674 84.5634C64.1392 85.4804 61.6796 86.4232 59.1885 87.3905L57.7402 83.6611C60.2427 82.6893 62.7141 81.7427 65.1543 80.8212L66.5674 84.5634ZM63.5342 78.3251C61.1436 79.5969 58.7654 80.8729 56.4023 82.1542L54.4951 78.6376C56.8685 77.3507 59.2564 76.0701 61.6553 74.7939L63.5342 78.3251ZM81.9209 78.9511C79.3965 79.8419 76.8351 80.7623 74.2363 81.7128L72.8623 77.956C75.475 77.0004 78.0507 76.0746 80.5898 75.1786L81.9209 78.9511ZM229.334 71.1991C231.245 73.2546 232.966 75.4701 234.511 77.8339L231.162 80.0214C229.737 77.84 228.154 75.8053 226.404 73.9228L229.334 71.1991ZM97.1602 73.7861C94.6098 74.6127 92.018 75.4731 89.3838 76.3671L88.0977 72.579C90.7487 71.6793 93.3585 70.8139 95.9268 69.9814L97.1602 73.7861ZM77.8838 70.8007C75.4812 72.0457 73.0854 73.2925 70.6992 74.5429L68.8428 70.9999C71.2353 69.7462 73.6369 68.4963 76.0439 67.2489L77.8838 70.8007ZM112.401 69.0986C109.944 69.8112 107.443 70.5582 104.899 71.3407L103.723 67.5175C106.287 66.7288 108.808 65.9756 111.287 65.2568L112.401 69.0986ZM215.947 61.0956C218.506 62.4198 220.879 63.9106 223.074 65.5614L220.67 68.7577C218.657 67.2445 216.474 65.8718 214.108 64.6474L215.947 61.0956ZM92.3018 63.3788C89.8944 64.6125 87.4892 65.8468 85.0879 67.082L83.2578 63.5253C85.6617 62.2888 88.0694 61.0534 90.4775 59.8193L92.3018 63.3788ZM128.102 64.8691C125.588 65.4905 123.024 66.1526 120.407 66.8573L119.367 62.995C122.009 62.2835 124.6 61.6145 127.141 60.9863L128.102 64.8691ZM143.874 61.3749C141.314 61.8704 138.692 62.4158 136.008 63.0116L135.142 59.1064C137.86 58.503 140.517 57.9508 143.114 57.4482L143.874 61.3749ZM200.119 55.5654C202.971 56.1765 205.671 56.9237 208.226 57.8046L206.922 61.5859C204.53 60.7609 201.985 60.056 199.281 59.4765L200.119 55.5654ZM159.729 58.8368C157.154 59.1546 154.504 59.5325 151.777 59.9716L151.142 56.0224C153.914 55.5759 156.613 55.1912 159.24 54.8671L159.729 58.8368ZM106.741 55.9745C104.337 57.211 101.93 58.4465 99.5225 59.6806L97.6982 56.121C100.106 54.8873 102.511 53.6531 104.912 52.4179L106.741 55.9745ZM183.845 53.6318C186.68 53.7377 189.402 53.943 192.015 54.245L191.556 58.2187C189.053 57.9293 186.434 57.7322 183.695 57.6298L183.845 53.6318ZM175.611 57.5976C173.072 57.6666 170.442 57.8071 167.721 58.0224L167.405 54.0351C170.192 53.8147 172.89 53.6696 175.502 53.5986L175.611 57.5976ZM121.157 48.4999C118.765 49.7537 116.363 51.0035 113.956 52.2509L112.116 48.6991C114.519 47.4541 116.915 46.2074 119.301 44.957L121.157 48.4999ZM135.505 40.8622C133.131 42.1491 130.744 43.4298 128.345 44.706L126.466 41.1747C128.856 39.903 131.235 38.6269 133.598 37.3456L135.505 40.8622ZM149.727 32.9638C147.382 34.3009 145.018 35.6303 142.636 36.9521L140.695 33.454C143.065 32.1393 145.415 30.8179 147.745 29.4892L149.727 32.9638ZM163.756 24.6943C161.453 26.1012 159.123 27.4977 156.77 28.8837L154.74 25.4364C157.076 24.0607 159.387 22.6759 161.67 21.2812L163.756 24.6943ZM171.907 14.8251C172.832 14.2218 174.071 14.4822 174.675 15.4072C175.278 16.3322 175.018 17.5712 174.093 18.1747C172.96 18.9135 171.819 19.6496 170.67 20.3818L168.521 17.0087C169.658 16.2839 170.787 15.5559 171.907 14.8251Z" fill="white"/>
<rect x="4" y="4" width="258" height="258" stroke="white" stroke-width="8"/>
</svg>
