<svg width="258" height="258" viewBox="0 0 258 258" fill="none" xmlns="http://www.w3.org/2000/svg">
<path d="M4 109C95.4539 109 172.049 172.61 191.96 258H24C15.6519 258 8.29965 253.738 4 247.271V109Z" fill="#FE7F2D"/>
<path d="M200.637 242.856C201.361 245.428 202.041 248.025 202.677 250.644L198.789 251.587C198.165 249.015 197.497 246.465 196.786 243.939L200.637 242.856ZM214.97 242.509C214.808 245.152 214.617 247.838 214.396 250.567L210.409 250.246C210.627 247.542 210.816 244.881 210.977 242.265L214.97 242.509ZM224.5 242.149C223.962 244.793 223.422 247.447 222.884 250.107L218.964 249.314C219.503 246.651 220.043 243.996 220.581 241.352L224.5 242.149ZM195.694 227.532C196.612 230.045 197.484 232.584 198.311 235.148L194.503 236.375C193.692 233.859 192.836 231.369 191.937 228.904L195.694 227.532ZM215.604 226.422C215.561 229.084 215.485 231.795 215.374 234.555L211.377 234.395C211.486 231.666 211.562 228.987 211.604 226.357L215.604 226.422ZM227.732 226.25C227.197 228.896 226.657 231.554 226.114 234.223L222.194 233.426C222.737 230.758 223.277 228.101 223.812 225.457L227.732 226.25ZM189.581 212.628C190.695 215.065 191.764 217.53 192.786 220.023L189.085 221.54C188.083 219.096 187.035 216.679 185.943 214.291L189.581 212.628ZM215.422 210.35C215.529 212.979 215.597 215.661 215.626 218.398L211.627 218.44C211.598 215.743 211.53 213.1 211.425 210.513L215.422 210.35ZM230.905 210.33C230.387 212.982 229.859 215.649 229.324 218.33L225.401 217.548C225.936 214.871 226.462 212.208 226.979 209.563L230.905 210.33ZM182.287 198.253C183.598 200.593 184.863 202.964 186.081 205.365L182.514 207.175C181.32 204.822 180.082 202.5 178.798 200.208L182.287 198.253ZM214.2 194.224C214.498 196.837 214.75 199.511 214.955 202.246L210.966 202.546C210.764 199.86 210.517 197.237 210.226 194.677L214.2 194.224ZM233.935 194.375C233.45 197.025 232.95 199.696 232.439 202.383L228.51 201.636C229.019 198.956 229.517 196.296 230 193.655L233.935 194.375ZM173.826 184.531C175.331 186.755 176.789 189.014 178.201 191.304L174.796 193.402C173.413 191.16 171.986 188.95 170.513 186.773L173.826 184.531ZM211.645 178.241C212.193 180.844 212.684 183.518 213.119 186.263L209.169 186.889C208.744 184.207 208.264 181.6 207.73 179.065L211.645 178.241ZM236.713 178.375C236.282 181.02 235.831 183.69 235.362 186.381L231.422 185.695C231.888 183.017 232.336 180.361 232.765 177.731L236.713 178.375ZM164.229 171.576C165.921 173.666 167.567 175.791 169.167 177.951L165.952 180.332C164.386 178.218 162.776 176.138 161.12 174.093L164.229 171.576ZM207.365 162.559C208.226 165.07 209.019 167.661 209.744 170.333L205.885 171.381C205.181 168.79 204.413 166.282 203.582 163.856L207.365 162.559ZM239.109 162.308C238.757 164.946 238.378 167.615 237.975 170.311L234.019 169.719C234.419 167.043 234.795 164.395 235.145 161.779L239.109 162.308ZM153.551 159.491C155.419 161.43 157.243 163.406 159.021 165.419L156.023 168.067C154.283 166.098 152.499 164.164 150.671 162.267L153.551 159.491ZM141.872 148.374C143.902 150.146 145.888 151.957 147.83 153.806L145.072 156.703C143.172 154.894 141.228 153.121 139.241 151.387L141.872 148.374ZM200.946 147.595C202.195 149.96 203.363 152.414 204.451 154.96L200.772 156.531C199.726 154.083 198.605 151.728 197.409 149.463L200.946 147.595ZM240.951 146.06C240.709 148.726 240.43 151.43 240.118 154.169L236.145 153.716C236.454 151.005 236.729 148.331 236.968 145.697L240.951 146.06ZM129.291 138.299C131.465 139.894 133.598 141.53 135.688 143.203L133.188 146.325C131.142 144.687 129.054 143.086 126.925 141.524L129.291 138.299ZM192.034 133.892C193.718 136.011 195.311 138.227 196.813 140.542L193.458 142.72C192.024 140.51 190.505 138.398 188.902 136.38L192.034 133.892ZM241.958 129.747C241.88 132.441 241.752 135.185 241.576 137.974L237.584 137.723C237.757 134.975 237.884 132.277 237.96 129.631L241.958 129.747ZM115.912 129.313C118.213 130.724 120.474 132.177 122.694 133.668L120.465 136.988C118.29 135.528 116.075 134.106 113.82 132.723L115.912 129.313ZM180.636 122.139C182.725 123.907 184.723 125.771 186.626 127.733L183.755 130.519C181.944 128.651 180.043 126.877 178.053 125.192L180.636 122.139ZM101.843 121.439C104.252 122.664 106.624 123.931 108.957 125.236L107.004 128.727C104.717 127.447 102.392 126.206 100.029 125.004L101.843 121.439ZM241.73 113.396C241.898 116.054 241.997 118.774 242.031 121.554L238.031 121.604C237.998 118.886 237.902 116.233 237.739 113.648L241.73 113.396ZM87.2295 114.694C89.7207 115.732 92.1763 116.81 94.5967 117.927L92.9219 121.559C90.5472 120.463 88.1368 119.405 85.6914 118.387L87.2295 114.694ZM167.224 112.787C169.616 114.156 171.922 115.611 174.14 117.153L171.855 120.438C169.737 118.964 167.531 117.572 165.237 116.26L167.224 112.787ZM72.1572 109.05C74.7198 109.907 77.2498 110.803 79.7461 111.737L78.3438 115.483C75.8921 114.566 73.4067 113.686 70.8887 112.844L72.1572 109.05ZM152.474 105.818C155.051 106.815 157.553 107.882 159.977 109.023L158.272 112.642C155.938 111.543 153.525 110.513 151.031 109.549L152.474 105.818ZM56.7188 104.471C59.334 105.152 61.9191 105.871 64.4727 106.628L63.3359 110.463C60.8253 109.719 58.2827 109.011 55.71 108.341L56.7188 104.471ZM137.031 100.907C139.691 101.593 142.284 102.334 144.812 103.134L143.604 106.947C141.15 106.17 138.626 105.448 136.033 104.78L137.031 100.907ZM41.0508 100.923C43.7013 101.436 46.3237 101.987 48.917 102.573L48.0342 106.475C45.4819 105.897 42.9009 105.355 40.291 104.85L41.0508 100.923ZM239.605 97.0157C240.157 99.6592 240.607 102.39 240.964 105.201L236.995 105.704C236.651 102.989 236.218 100.363 235.69 97.8321L239.605 97.0157ZM33.1514 99.2247C32.7108 99.2512 32.2694 99.2793 31.8272 99.3067C32.2608 99.375 32.6938 99.4435 33.126 99.5137L32.4854 103.462C29.8974 103.042 27.2823 102.656 24.6406 102.306L25.0947 98.8711L24.8789 95.754C27.5852 95.5656 30.2629 95.3913 32.9111 95.2315L33.1514 99.2247ZM121.207 97.6016C123.914 98.0489 126.565 98.5413 129.157 99.0801L128.343 102.996C125.807 102.469 123.211 101.987 120.555 101.548L121.207 97.6016ZM15.5215 95.418C15.7024 95.3395 15.8838 95.261 16.0645 95.1827L16.5781 96.3682C16.6829 96.36 16.7879 96.352 16.8926 96.3438L16.9629 97.2588L17.0156 97.3799C17.0791 97.3865 17.1426 97.3929 17.2061 97.3995L17.1709 97.7364L17.6543 98.8536C17.4717 98.9327 17.2893 99.0125 17.1064 99.0918L17.2031 100.332C17.1014 100.34 16.9993 100.348 16.8975 100.356L16.792 101.378C15.4745 101.241 14.1505 101.112 12.8203 100.992C11.972 100.916 11.2655 100.31 11.0596 99.4834C11.0063 99.2694 10.9909 99.0526 11.0078 98.8409C11.0038 98.7843 11.0012 98.7282 11.002 98.6719C10.9957 97.7347 11.6425 96.9252 12.543 96.7149C12.8505 96.5805 13.1581 96.4473 13.4648 96.3135C14.0841 95.914 14.7061 95.5159 15.3301 95.1182L15.5215 95.418ZM105.163 95.5264C107.888 95.7903 110.564 96.0904 113.189 96.4278L112.68 100.395C110.098 100.063 107.464 99.7679 104.778 99.5079L105.163 95.5264ZM89.1211 94.4043C91.8474 94.528 94.5304 94.6811 97.1689 94.8643L96.8916 98.8545C94.2866 98.6736 91.6363 98.5228 88.9404 98.4004L89.1211 94.4043ZM49.1035 98.4307C46.4593 98.5323 43.782 98.6505 41.0723 98.7862L40.8721 94.7911C43.5964 94.6547 46.289 94.5358 48.9492 94.4336L49.1035 98.4307ZM65.0371 98.0293C62.4076 98.0578 59.7416 98.107 57.04 98.1758L56.9385 94.1768C59.6585 94.1075 62.3434 94.0581 64.9932 94.0293L65.0371 98.0293ZM73.0449 94.0079C75.7444 94.0231 78.4055 94.0618 81.0283 94.125L80.9316 98.1241C78.3347 98.0614 75.6984 98.023 73.0225 98.0079L73.0449 94.0079ZM30.625 88.9864C30.7879 88.9184 30.9506 88.8501 31.1133 88.7823L32.6533 92.4747C30.2084 93.4941 27.7359 94.5347 25.2363 95.5977L24.583 94.0645C24.4987 94.1159 24.4143 94.1674 24.3301 94.2188L22.2441 90.8057C24.5466 89.3988 26.8769 88.0023 29.2305 86.6163L30.625 88.9864ZM234.543 81.1807C235.678 83.6605 236.667 86.2606 237.521 88.9717L233.706 90.1739C232.897 87.6074 231.967 85.1632 230.906 82.8457L234.543 81.1807ZM45.3047 82.0459C43.3082 83.1538 41.326 84.2681 39.3574 85.3858C41.6422 84.4556 43.9023 83.5437 46.1387 82.6524L47.6191 86.3682C45.0799 87.3802 42.509 88.4177 39.9063 89.4805L38.4453 85.9024C38.3819 85.9385 38.3183 85.9746 38.2549 86.0108L36.2734 82.5362C38.6178 81.199 40.9824 79.8696 43.3643 78.5479L45.3047 82.0459ZM62.5674 80.5635C60.1392 81.4805 57.6796 82.4233 55.1885 83.3907L53.7402 79.6612C56.2427 78.6894 58.7141 77.7428 61.1543 76.8213L62.5674 80.5635ZM59.5342 74.3252C57.1436 75.597 54.7654 76.8731 52.4023 78.1543L50.4951 74.6377C52.8685 73.3509 55.2564 72.0702 57.6553 70.794L59.5342 74.3252ZM77.9209 74.9512C75.3965 75.842 72.8351 76.7625 70.2363 77.7129L68.8623 73.9561C71.475 73.0005 74.0507 72.0748 76.5898 71.1788L77.9209 74.9512ZM225.334 67.1993C227.245 69.2547 228.966 71.4702 230.511 73.834L227.162 76.0215C225.737 73.8402 224.154 71.8054 222.404 69.9229L225.334 67.1993ZM93.1602 69.7862C90.6098 70.6128 88.018 71.4732 85.3838 72.3672L84.0977 68.5791C86.7487 67.6794 89.3585 66.814 91.9268 65.9815L93.1602 69.7862ZM73.8838 66.8008C71.4812 68.0459 69.0854 69.2926 66.6992 70.543L64.8428 67C67.2353 65.7463 69.6369 64.4964 72.0439 63.2491L73.8838 66.8008ZM108.401 65.0987C105.944 65.8113 103.443 66.5584 100.899 67.3409L99.7227 63.5176C102.287 62.729 104.808 61.9757 107.287 61.2569L108.401 65.0987ZM211.947 57.0957C214.506 58.4199 216.879 59.9107 219.074 61.5616L216.67 64.7579C214.657 63.2447 212.474 61.8719 210.108 60.6475L211.947 57.0957ZM88.3018 59.379C85.8944 60.6127 83.4892 61.8469 81.0879 63.0821L79.2578 59.5254C81.6617 58.2889 84.0694 57.0535 86.4775 55.8194L88.3018 59.379ZM124.102 60.8692C121.588 61.4906 119.024 62.1528 116.407 62.8575L115.367 58.9952C118.009 58.2836 120.6 57.6146 123.141 56.9864L124.102 60.8692ZM139.874 57.375C137.314 57.8705 134.692 58.4159 132.008 59.0118L131.142 55.1065C133.86 54.5032 136.517 53.9509 139.114 53.4483L139.874 57.375ZM196.119 51.5655C198.971 52.1766 201.671 52.9239 204.226 53.8047L202.922 57.586C200.53 56.761 197.985 56.0561 195.281 55.4766L196.119 51.5655ZM155.729 54.837C153.154 55.1547 150.504 55.5326 147.777 55.9717L147.142 52.0225C149.914 51.576 152.613 51.1913 155.24 50.8672L155.729 54.837ZM102.741 51.9747C100.337 53.2111 97.9305 54.4467 95.5225 55.6807L93.6982 52.1211C96.1056 50.8874 98.5108 49.6532 100.912 48.418L102.741 51.9747ZM179.845 49.6319C182.68 49.7379 185.402 49.9431 188.015 50.2452L187.556 54.2188C185.053 53.9294 182.434 53.7323 179.695 53.6299L179.845 49.6319ZM171.611 53.5977C169.072 53.6668 166.442 53.8072 163.721 54.0225L163.405 50.0352C166.192 49.8148 168.89 49.6697 171.502 49.5987L171.611 53.5977ZM117.157 44.5C114.765 45.7538 112.363 47.0037 109.956 48.251L108.116 44.6993C110.519 43.4542 112.915 42.2075 115.301 40.9571L117.157 44.5ZM131.505 36.8624C129.131 38.1492 126.744 39.4299 124.345 40.7061L122.466 37.1749C124.856 35.9031 127.235 34.627 129.598 33.3457L131.505 36.8624ZM145.727 28.9639C143.382 30.3011 141.018 31.6305 138.636 32.9522L136.695 29.4541C139.065 28.1394 141.415 26.818 143.745 25.4893L145.727 28.9639ZM159.756 20.6944C157.453 22.1013 155.123 23.4978 152.77 24.8838L150.74 21.4366C153.076 20.0608 155.387 18.676 157.67 17.2813L159.756 20.6944ZM167.907 10.8252C168.832 10.2219 170.071 10.4823 170.675 11.4073C171.278 12.3324 171.018 13.5714 170.093 14.1749C168.96 14.9136 167.819 15.6497 166.67 16.3819L164.521 13.0088C165.658 12.284 166.787 11.556 167.907 10.8252Z" fill="black"/>
<rect x="2" y="237" width="21" height="19" fill="#FE7F2D"/>
<rect x="2" y="2" width="254" height="254" stroke="black" stroke-width="4"/>
</svg>
